<svg width="389" height="292" viewBox="0 0 389 292" fill="none" xmlns="http://www.w3.org/2000/svg">
<path d="M291.104 207.898L93.5651 202.233C89.1236 202.109 84.8794 200.369 81.6277 197.339C78.3759 194.308 76.3397 190.195 75.9005 185.77L66.3655 91.4781C66.1116 88.9542 66.3843 86.4049 67.1662 83.992C67.9482 81.579 69.2223 79.3549 70.9079 77.4605C72.5936 75.5661 74.6539 74.0427 76.9585 72.9869C79.2631 71.9312 81.7617 71.3659 84.2959 71.3271L304.172 68.2854C306.787 68.25 309.379 68.7755 311.774 69.8264C314.169 70.8773 316.311 72.4293 318.056 74.3781C319.802 76.3268 321.11 78.6271 321.893 81.1241C322.676 83.6212 322.916 86.2571 322.596 88.8547L309.794 191.853C309.224 196.372 306.995 200.517 303.54 203.482C300.086 206.448 295.653 208.022 291.104 207.898Z" fill="#EAF9F3"/>
<path d="M231.956 212.384L232.64 227.783C232.64 229.295 232.04 230.746 230.971 231.816C229.902 232.885 228.453 233.486 226.942 233.486H69.0625C67.5512 233.486 66.1019 232.885 65.0332 231.816C63.9646 230.746 63.3643 229.295 63.3643 227.783V138.168C63.3643 136.655 63.9646 135.205 65.0332 134.135C66.1019 133.065 67.5512 132.465 69.0625 132.465H226.904C228.415 132.465 229.864 133.065 230.933 134.135C232.002 135.205 232.602 136.655 232.602 138.168V198.773" stroke="#B8D8C7" stroke-width="1.16191" stroke-linecap="round" stroke-linejoin="round"/>
<path d="M267.322 199.153V110.907C267.322 109.394 267.923 107.944 268.991 106.874C270.06 105.805 271.509 105.204 273.021 105.204H320.126C321.637 105.204 323.087 105.805 324.155 106.874C325.224 107.944 325.824 109.394 325.824 110.907V241.813C325.824 243.325 325.224 244.776 324.155 245.845C323.087 246.915 321.637 247.516 320.126 247.516H273.021C271.509 247.516 270.06 246.915 268.991 245.845C267.923 244.776 267.322 243.325 267.322 241.813V213.335" stroke="#B8D8C7" stroke-width="1.16191" stroke-linecap="round" stroke-linejoin="round"/>
<path d="M98.7315 105.736H64.5801V102.352H98.7315C98.8215 102.352 98.9106 102.369 98.9938 102.403C99.077 102.437 99.1526 102.488 99.2162 102.551C99.2798 102.615 99.3301 102.691 99.3643 102.774C99.3985 102.857 99.4158 102.946 99.4153 103.036V105.014C99.4228 105.107 99.4106 105.201 99.3794 105.29C99.3482 105.378 99.2987 105.459 99.2342 105.527C99.1698 105.595 99.0917 105.649 99.0051 105.685C98.9185 105.721 98.8253 105.738 98.7315 105.736V105.736Z" stroke="#B8D8C7" stroke-width="1.16191" stroke-linecap="round" stroke-linejoin="round"/>
<path d="M93.5271 132.465H85.8155C85.4137 132.466 85.0255 132.319 84.7244 132.053C84.4233 131.787 84.2303 131.419 84.182 131.02L83.5742 125.545C83.5491 125.315 83.5727 125.083 83.6433 124.863C83.7139 124.642 83.8301 124.44 83.9842 124.268C84.1383 124.095 84.3268 123.958 84.5376 123.863C84.7484 123.769 84.9767 123.72 85.2077 123.72H94.1349C94.3657 123.721 94.5937 123.77 94.8042 123.865C95.0147 123.959 95.203 124.097 95.357 124.269C95.511 124.441 95.6272 124.643 95.698 124.863C95.7689 125.083 95.7929 125.315 95.7684 125.545L95.1606 131.02C95.1179 131.421 94.9266 131.792 94.6243 132.06C94.3219 132.327 93.9305 132.472 93.5271 132.465V132.465Z" stroke="#B8D8C7" stroke-width="1.16191" stroke-linecap="round" stroke-linejoin="round"/>
<path d="M88.7777 123.758C88.7777 123.758 85.7387 123.454 85.1309 119.347C85.1309 119.347 87.866 120.146 88.7397 122.085C88.7397 122.085 89.1196 117.751 91.171 117.332C91.171 117.332 92.0827 120.564 90.6392 122.161C90.6392 122.161 91.7408 120.336 94.552 120.374C94.2864 121.175 93.829 121.898 93.2198 122.481C92.6106 123.065 91.8681 123.49 91.057 123.72" fill="#B8D8C7"/>
<path d="M300.98 105.204H293.269C292.867 105.205 292.479 105.058 292.178 104.792C291.876 104.526 291.683 104.158 291.635 103.759L291.027 98.2839C291.002 98.0541 291.026 97.8216 291.096 97.6016C291.167 97.3815 291.283 97.1788 291.437 97.0067C291.591 96.8345 291.78 96.6968 291.991 96.6024C292.202 96.508 292.43 96.4591 292.661 96.4589H301.588C301.819 96.4597 302.047 96.509 302.257 96.6036C302.468 96.6982 302.656 96.8359 302.81 97.0079C302.964 97.1799 303.08 97.3824 303.151 97.6022C303.222 97.822 303.246 98.0542 303.222 98.2839L302.614 103.759C302.565 104.158 302.372 104.526 302.071 104.792C301.77 105.058 301.382 105.205 300.98 105.204V105.204Z" stroke="#B8D8C7" stroke-width="1.16191" stroke-linecap="round" stroke-linejoin="round"/>
<path d="M296.194 96.4969C296.194 96.4969 293.155 96.1927 292.547 92.0865C292.547 92.0865 295.282 92.8849 296.156 94.824C296.156 94.824 296.536 90.4896 298.587 90.0714C298.587 90.0714 299.499 93.3031 298.055 94.9C298.055 94.9 299.157 93.075 301.968 93.113C301.702 93.9138 301.245 94.6373 300.636 95.2205C300.027 95.8037 299.284 96.2289 298.473 96.4589" fill="#B8D8C7"/>
<path d="M225.726 151.361H191.461C191.039 151.358 190.634 151.189 190.336 150.89C190.037 150.591 189.868 150.187 189.865 149.764V139.346C189.868 138.924 190.037 138.519 190.336 138.22C190.634 137.922 191.039 137.752 191.461 137.749H225.726C226.148 137.752 226.553 137.922 226.851 138.22C227.15 138.519 227.319 138.924 227.322 139.346V149.764C227.319 150.187 227.15 150.591 226.851 150.89C226.553 151.189 226.148 151.358 225.726 151.361V151.361Z" stroke="#B8D8C7" stroke-width="1.16191" stroke-linecap="round" stroke-linejoin="round"/>
<path d="M212.507 141.437H204.605C204.455 141.434 204.312 141.372 204.206 141.266C204.1 141.16 204.039 141.017 204.035 140.867C204.039 140.717 204.1 140.574 204.206 140.468C204.312 140.362 204.455 140.301 204.605 140.297H212.507C212.656 140.301 212.799 140.362 212.905 140.468C213.011 140.574 213.073 140.717 213.076 140.867C213.078 140.943 213.064 141.017 213.036 141.087C213.008 141.157 212.966 141.221 212.913 141.274C212.86 141.327 212.796 141.369 212.726 141.397C212.657 141.425 212.582 141.439 212.507 141.437Z" fill="#B8D8C7"/>
<path d="M225.726 168.813H191.461C191.039 168.81 190.634 168.64 190.336 168.341C190.037 168.043 189.868 167.638 189.865 167.216V156.798C189.868 156.375 190.037 155.971 190.336 155.672C190.634 155.373 191.039 155.204 191.461 155.201H225.726C226.148 155.204 226.553 155.373 226.851 155.672C227.15 155.971 227.319 156.375 227.322 156.798V167.216C227.319 167.638 227.15 168.043 226.851 168.341C226.553 168.64 226.148 168.81 225.726 168.813V168.813Z" stroke="#B8D8C7" stroke-width="1.16191" stroke-linecap="round" stroke-linejoin="round"/>
<path d="M212.507 158.851H204.605C204.455 158.847 204.312 158.786 204.206 158.68C204.1 158.574 204.039 158.431 204.035 158.281C204.039 158.131 204.1 157.988 204.206 157.882C204.312 157.776 204.455 157.714 204.605 157.71H212.507C212.656 157.714 212.799 157.776 212.905 157.882C213.011 157.988 213.073 158.131 213.076 158.281C213.078 158.356 213.064 158.431 213.036 158.501C213.008 158.571 212.966 158.634 212.913 158.687C212.86 158.741 212.796 158.783 212.726 158.811C212.657 158.839 212.582 158.853 212.507 158.851Z" fill="#B8D8C7"/>
<path d="M182.039 151.361H147.773C147.351 151.358 146.947 151.189 146.648 150.89C146.35 150.591 146.181 150.187 146.178 149.764V139.346C146.181 138.924 146.35 138.519 146.648 138.22C146.947 137.922 147.351 137.752 147.773 137.749H182.039C182.461 137.752 182.865 137.922 183.164 138.22C183.462 138.519 183.631 138.924 183.634 139.346V149.764C183.631 150.187 183.462 150.591 183.164 150.89C182.865 151.189 182.461 151.358 182.039 151.361V151.361Z" stroke="#B8D8C7" stroke-width="1.16191" stroke-linecap="round" stroke-linejoin="round"/>
<path d="M168.858 141.438H160.957C160.807 141.434 160.664 141.372 160.558 141.266C160.452 141.16 160.391 141.017 160.387 140.867C160.391 140.717 160.452 140.574 160.558 140.468C160.664 140.362 160.807 140.301 160.957 140.297H168.858C169.008 140.301 169.151 140.362 169.257 140.468C169.363 140.574 169.424 140.717 169.428 140.867C169.424 141.017 169.363 141.16 169.257 141.266C169.151 141.372 169.008 141.434 168.858 141.438Z" fill="#B8D8C7"/>
<path d="M182.039 168.813H147.773C147.351 168.81 146.947 168.64 146.648 168.341C146.35 168.043 146.181 167.638 146.178 167.216V156.798C146.181 156.375 146.35 155.971 146.648 155.672C146.947 155.373 147.351 155.204 147.773 155.201H182.039C182.461 155.204 182.865 155.373 183.164 155.672C183.462 155.971 183.631 156.375 183.634 156.798V167.216C183.631 167.638 183.462 168.043 183.164 168.341C182.865 168.64 182.461 168.81 182.039 168.813V168.813Z" stroke="#B8D8C7" stroke-width="1.16191" stroke-linecap="round" stroke-linejoin="round"/>
<path d="M168.858 158.851H160.957C160.807 158.847 160.664 158.786 160.558 158.68C160.452 158.574 160.391 158.431 160.387 158.281C160.391 158.131 160.452 157.988 160.558 157.882C160.664 157.776 160.807 157.714 160.957 157.71H168.858C169.008 157.714 169.151 157.776 169.257 157.882C169.363 157.988 169.424 158.131 169.428 158.281C169.424 158.431 169.363 158.574 169.257 158.68C169.151 158.786 169.008 158.847 168.858 158.851Z" fill="#B8D8C7"/>
<path d="M225.726 185.846H191.461C191.039 185.843 190.634 185.674 190.336 185.375C190.037 185.076 189.868 184.672 189.865 184.249V173.831C189.868 173.409 190.037 173.004 190.336 172.705C190.634 172.407 191.039 172.237 191.461 172.234H225.726C226.148 172.237 226.553 172.407 226.851 172.705C227.15 173.004 227.319 173.409 227.322 173.831V184.249C227.319 184.672 227.15 185.076 226.851 185.375C226.553 185.674 226.148 185.843 225.726 185.846V185.846Z" stroke="#B8D8C7" stroke-width="1.16191" stroke-linecap="round" stroke-linejoin="round"/>
<path d="M212.507 175.922H204.605C204.455 175.919 204.312 175.857 204.206 175.751C204.1 175.645 204.039 175.502 204.035 175.352C204.039 175.202 204.1 175.059 204.206 174.953C204.312 174.847 204.455 174.786 204.605 174.782H212.507C212.656 174.786 212.799 174.847 212.905 174.953C213.011 175.059 213.073 175.202 213.076 175.352C213.078 175.427 213.064 175.502 213.036 175.572C213.008 175.642 212.966 175.706 212.913 175.759C212.86 175.812 212.796 175.854 212.726 175.882C212.657 175.91 212.582 175.924 212.507 175.922Z" fill="#B8D8C7"/>
<path d="M182.039 185.846H147.773C147.351 185.843 146.947 185.674 146.648 185.375C146.35 185.076 146.181 184.672 146.178 184.249V173.831C146.181 173.409 146.35 173.004 146.648 172.705C146.947 172.407 147.351 172.237 147.773 172.234H182.039C182.461 172.237 182.865 172.407 183.164 172.705C183.462 173.004 183.631 173.409 183.634 173.831V184.249C183.631 184.672 183.462 185.076 183.164 185.375C182.865 185.674 182.461 185.843 182.039 185.846V185.846Z" stroke="#B8D8C7" stroke-width="1.16191" stroke-linecap="round" stroke-linejoin="round"/>
<path d="M168.858 175.922H160.957C160.807 175.919 160.664 175.857 160.558 175.751C160.452 175.645 160.391 175.502 160.387 175.352C160.391 175.202 160.452 175.059 160.558 174.953C160.664 174.847 160.807 174.786 160.957 174.782H168.858C169.008 174.786 169.151 174.847 169.257 174.953C169.363 175.059 169.424 175.202 169.428 175.352C169.424 175.502 169.363 175.645 169.257 175.751C169.151 175.857 169.008 175.919 168.858 175.922Z" fill="#B8D8C7"/>
<path d="M336.159 145.049H275.415C274.953 145.045 274.512 144.859 274.185 144.532C273.859 144.205 273.673 143.763 273.668 143.301V112.998C273.673 112.536 273.859 112.094 274.185 111.767C274.512 111.44 274.953 111.254 275.415 111.249H336.159C336.621 111.254 337.062 111.44 337.389 111.767C337.716 112.094 337.901 112.536 337.906 112.998V143.301C337.91 143.531 337.867 143.76 337.78 143.974C337.694 144.188 337.565 144.382 337.402 144.545C337.239 144.708 337.045 144.837 336.832 144.924C336.618 145.01 336.389 145.053 336.159 145.049V145.049Z" stroke="#B8D8C7" stroke-width="1.16191" stroke-linecap="round" stroke-linejoin="round"/>
<path d="M336.159 182.69H275.415C274.953 182.685 274.512 182.499 274.185 182.172C273.859 181.845 273.673 181.403 273.668 180.941V150.639C273.673 150.176 273.859 149.734 274.185 149.407C274.512 149.08 274.953 148.895 275.415 148.89H336.159C336.621 148.895 337.062 149.08 337.389 149.407C337.716 149.734 337.901 150.176 337.906 150.639V180.941C337.907 181.171 337.862 181.399 337.774 181.611C337.687 181.823 337.558 182.016 337.395 182.179C337.233 182.341 337.04 182.47 336.828 182.558C336.616 182.646 336.388 182.691 336.159 182.69V182.69Z" stroke="#B8D8C7" stroke-width="1.16191" stroke-linecap="round" stroke-linejoin="round"/>
<path d="M289.091 125.925H285.33V145.049H289.091V125.925Z" stroke="#B8D8C7" stroke-width="1.16191" stroke-linecap="round" stroke-linejoin="round"/>
<path d="M292.966 131.172H289.053V145.088H292.966V131.172Z" stroke="#B8D8C7" stroke-width="1.16191" stroke-linecap="round" stroke-linejoin="round"/>
<path d="M84.9796 83.2276H81.2188V102.352H84.9796V83.2276Z" stroke="#B8D8C7" stroke-width="1.16191" stroke-linecap="round" stroke-linejoin="round"/>
<path d="M88.8542 88.4365H84.9414V102.352H88.8542V88.4365Z" stroke="#B8D8C7" stroke-width="1.16191" stroke-linecap="round" stroke-linejoin="round"/>
<path d="M77.3058 91.174H73.5449V102.352H77.3058V91.174Z" stroke="#B8D8C7" stroke-width="1.16191" stroke-linecap="round" stroke-linejoin="round"/>
<path d="M81.2194 79.9578H77.3066V102.314H81.2194V79.9578Z" stroke="#B8D8C7" stroke-width="1.16191" stroke-linecap="round" stroke-linejoin="round"/>
<path d="M286.736 166.075L287.154 160.41C287.162 160.321 287.151 160.232 287.122 160.148C287.093 160.064 287.047 159.986 286.985 159.922C286.924 159.857 286.85 159.806 286.768 159.772C286.686 159.738 286.597 159.722 286.508 159.726H283.279C283.191 159.726 283.104 159.744 283.024 159.779C282.943 159.814 282.87 159.865 282.81 159.929C282.749 159.993 282.703 160.069 282.672 160.151C282.642 160.234 282.629 160.322 282.633 160.41L283.051 166.075C283.051 166.075 279.632 168.28 279.67 170.105C279.708 171.512 280.544 178.242 280.924 181.207C280.972 181.607 281.165 181.974 281.466 182.24C281.767 182.507 282.156 182.653 282.557 182.652H287.268C287.67 182.653 288.058 182.507 288.359 182.24C288.66 181.974 288.853 181.607 288.901 181.207C289.281 178.242 290.117 171.512 290.155 170.105C290.155 168.28 286.736 166.075 286.736 166.075Z" fill="#B8D8C7"/>
<path d="M305.046 128.472L305.463 122.807C305.472 122.719 305.461 122.629 305.432 122.545C305.403 122.461 305.356 122.384 305.295 122.319C305.234 122.254 305.16 122.203 305.077 122.17C304.995 122.136 304.907 122.12 304.818 122.123H301.551C301.463 122.123 301.376 122.142 301.295 122.177C301.214 122.212 301.142 122.263 301.081 122.327C301.021 122.391 300.974 122.466 300.944 122.549C300.913 122.631 300.9 122.719 300.905 122.807L301.323 128.472C301.323 128.472 297.904 130.678 297.942 132.503C297.98 133.909 298.815 140.639 299.195 143.605C299.244 144.004 299.437 144.371 299.738 144.638C300.039 144.904 300.427 145.051 300.829 145.05H305.539C305.941 145.051 306.329 144.904 306.63 144.638C306.932 144.371 307.125 144.004 307.173 143.605C307.553 140.639 308.389 133.909 308.427 132.503C308.464 130.678 305.046 128.472 305.046 128.472Z" fill="#B8D8C7"/>
<path d="M68.5312 196.986L335.589 199.914" stroke="#B8D8C7" stroke-width="1.16191" stroke-linecap="round" stroke-linejoin="round"/>
<path d="M209.125 61.6698C207.643 64.8255 204.225 66.9167 201.831 66.2703C199.742 65.7 199.362 63.2287 200.692 60.7573C201.983 58.4 204.566 56.499 206.808 56.461C209.277 56.3849 210.493 58.6662 209.125 61.6698Z" fill="#F8AB5D"/>
<path d="M208.404 61.0234C206.923 64.1791 203.504 66.2703 201.111 65.6239C199.021 65.0536 198.641 62.5823 199.971 60.1109C201.263 57.7536 203.846 55.8526 206.087 55.8146C208.556 55.7385 209.772 58.0198 208.404 61.0234Z" fill="#FFE779"/>
<path d="M207.188 60.8714C206.086 63.2287 203.503 64.8255 201.68 64.4073C200.046 64.0271 199.666 62.1261 200.692 60.187C201.68 58.324 203.769 56.8412 205.479 56.8412C207.416 56.8792 208.252 58.6281 207.188 60.8714Z" fill="#F8AB5D"/>
<path d="M202.249 62.8865L202.401 62.6203C202.439 62.5063 202.439 62.4302 202.363 62.3922C202.195 62.3599 202.045 62.2648 201.945 62.126C201.907 62.088 201.907 61.974 201.983 61.8599L202.021 61.8219C202.097 61.7078 202.249 61.6698 202.287 61.7458C202.418 61.8858 202.592 61.9792 202.781 62.012C202.975 62.0398 203.174 62.0028 203.345 61.9066C203.517 61.8104 203.652 61.6604 203.73 61.4797C203.774 61.4107 203.802 61.3334 203.814 61.2528C203.826 61.1722 203.821 61.0901 203.8 61.0115C203.778 60.9328 203.741 60.8595 203.69 60.7962C203.638 60.7328 203.575 60.6807 203.502 60.6432C203.402 60.5944 203.313 60.5244 203.241 60.438C203.17 60.3516 203.118 60.2509 203.089 60.1426C203.061 60.0343 203.055 59.9211 203.074 59.8107C203.093 59.7003 203.135 59.5952 203.198 59.5026C203.305 59.2766 203.464 59.0793 203.662 58.9272C203.861 58.7751 204.092 58.6726 204.338 58.6281C204.414 58.6281 204.49 58.5521 204.566 58.438L204.718 58.1719C204.738 58.1167 204.773 58.0689 204.821 58.0349C204.869 58.0009 204.925 57.9823 204.984 57.9818C205.06 57.9818 205.098 58.0578 205.06 58.1719L204.946 58.4C204.908 58.5141 204.908 58.5901 205.022 58.5901C205.147 58.6095 205.265 58.662 205.364 58.7422C205.44 58.7802 205.402 58.8943 205.326 59.0083L205.288 59.0464C205.212 59.1604 205.06 59.1984 205.022 59.1224C204.892 59.0211 204.731 58.9674 204.566 58.9703C204.393 58.9592 204.221 59.0004 204.072 59.0886C203.923 59.1767 203.804 59.3078 203.73 59.4646C203.578 59.7688 203.692 59.9589 204.034 60.225C204.139 60.2851 204.23 60.3668 204.302 60.4646C204.373 60.5624 204.423 60.6743 204.448 60.7927C204.473 60.9112 204.473 61.0336 204.447 61.152C204.422 61.2704 204.372 61.3821 204.3 61.4797C204.18 61.7327 204 61.952 203.774 62.1179C203.549 62.2838 203.286 62.3911 203.009 62.4302C202.957 62.4375 202.908 62.4591 202.867 62.4927C202.827 62.5263 202.797 62.5705 202.781 62.6203L202.629 62.9245C202.605 62.9765 202.567 63.0214 202.521 63.0547C202.474 63.0881 202.42 63.1087 202.363 63.1146C202.211 63.1146 202.173 63.0005 202.249 62.8865Z" fill="#FFE779"/>
<path d="M278.378 129.613L263.639 128.701C263.396 128.685 263.16 128.621 262.942 128.512C262.724 128.404 262.53 128.254 262.371 128.07C262.212 127.886 262.091 127.672 262.015 127.441C261.94 127.21 261.91 126.966 261.93 126.723L264.171 96.4589C264.213 95.9524 264.436 95.4781 264.799 95.1223C265.161 94.7664 265.639 94.5526 266.146 94.5198L281.228 93.6073C281.489 93.5937 281.75 93.6358 281.994 93.7309C282.238 93.826 282.458 93.9718 282.642 94.1588C282.825 94.3457 282.966 94.5695 283.056 94.8153C283.147 95.061 283.184 95.3232 283.165 95.5844L280.658 127.674C280.599 128.228 280.33 128.739 279.905 129.1C279.481 129.461 278.934 129.644 278.378 129.613Z" fill="#22272E"/>
<path d="M277.353 129.613L262.614 128.701C262.371 128.685 262.134 128.621 261.916 128.512C261.699 128.404 261.505 128.254 261.346 128.07C261.187 127.886 261.066 127.672 260.99 127.441C260.914 127.21 260.885 126.966 260.904 126.723L263.145 96.4589C263.188 95.9524 263.411 95.4781 263.773 95.1223C264.136 94.7664 264.614 94.5526 265.121 94.5198L280.202 93.6073C280.463 93.5937 280.725 93.6358 280.968 93.7309C281.212 93.826 281.433 93.9718 281.616 94.1588C281.799 94.3457 281.941 94.5695 282.031 94.8153C282.121 95.061 282.158 95.3232 282.14 95.5844L279.632 127.674C279.574 128.228 279.304 128.739 278.88 129.1C278.456 129.461 277.909 129.644 277.353 129.613Z" fill="#22272E"/>
<path d="M272.832 97.1432L270.021 97.2953C269.971 97.2987 269.92 97.2911 269.872 97.2732C269.824 97.2553 269.781 97.2274 269.745 97.1914C269.709 97.1554 269.681 97.1121 269.663 97.0645C269.646 97.0168 269.638 96.9659 269.641 96.9151C269.642 96.8045 269.687 96.6987 269.765 96.6205C269.843 96.5422 269.949 96.4979 270.059 96.4969L272.87 96.3448C272.921 96.3414 272.972 96.3489 273.02 96.3669C273.067 96.3848 273.111 96.4127 273.146 96.4487C273.182 96.4847 273.21 96.5279 273.228 96.5756C273.246 96.6233 273.254 96.6742 273.25 96.725C273.249 96.8356 273.205 96.9414 273.127 97.0196C273.049 97.0978 272.943 97.1422 272.832 97.1432Z" fill="#63737A"/>
<path d="M274.464 97.0672H274.388C274.338 97.0706 274.287 97.063 274.239 97.0451C274.192 97.0272 274.148 96.9993 274.112 96.9633C274.076 96.9273 274.049 96.884 274.031 96.8364C274.013 96.7887 274.005 96.7378 274.009 96.687C274.023 96.571 274.076 96.4631 274.158 96.3805C274.241 96.2978 274.349 96.2451 274.464 96.2308H274.54C274.591 96.2274 274.642 96.2349 274.69 96.2528C274.737 96.2708 274.781 96.2987 274.817 96.3347C274.852 96.3707 274.88 96.4139 274.898 96.4616C274.916 96.5092 274.924 96.5602 274.92 96.611C274.906 96.727 274.853 96.8349 274.771 96.9175C274.688 97.0002 274.58 97.0528 274.464 97.0672Z" fill="#63737A"/>
<path d="M270.058 102.2L266.297 102.314C266.205 102.315 266.115 102.297 266.03 102.26C265.946 102.223 265.871 102.168 265.81 102.1C265.749 102.032 265.703 101.951 265.676 101.863C265.648 101.775 265.64 101.683 265.651 101.592C265.671 101.397 265.758 101.215 265.896 101.076C266.035 100.938 266.217 100.851 266.411 100.831L270.172 100.679C270.264 100.678 270.355 100.696 270.439 100.733C270.523 100.77 270.598 100.825 270.659 100.893C270.721 100.962 270.766 101.042 270.794 101.13C270.821 101.218 270.829 101.31 270.818 101.402C270.813 101.605 270.732 101.8 270.592 101.947C270.451 102.095 270.261 102.185 270.058 102.2Z" fill="#63737A"/>
<path d="M269.071 115.279L265.348 115.241C265.258 115.236 265.17 115.214 265.089 115.175C265.008 115.136 264.935 115.081 264.875 115.014C264.815 114.947 264.769 114.869 264.74 114.784C264.71 114.699 264.697 114.609 264.702 114.519C264.723 114.328 264.811 114.151 264.95 114.019C265.089 113.886 265.271 113.808 265.462 113.796L269.185 113.834C269.276 113.836 269.365 113.856 269.448 113.894C269.531 113.932 269.605 113.987 269.665 114.055C269.726 114.122 269.772 114.202 269.8 114.288C269.829 114.375 269.839 114.466 269.831 114.557C269.817 114.75 269.731 114.931 269.59 115.065C269.45 115.199 269.265 115.275 269.071 115.279Z" fill="#63737A"/>
<path d="M268.274 125.849L264.551 125.659C264.459 125.653 264.368 125.628 264.285 125.586C264.202 125.544 264.128 125.486 264.068 125.415C264.008 125.344 263.962 125.262 263.934 125.173C263.906 125.085 263.897 124.991 263.905 124.898C263.913 124.713 263.993 124.538 264.128 124.41C264.263 124.282 264.442 124.212 264.627 124.214L268.35 124.366C268.444 124.369 268.536 124.392 268.621 124.432C268.706 124.473 268.781 124.531 268.842 124.603C268.902 124.675 268.948 124.758 268.974 124.848C269.001 124.939 269.008 125.033 268.996 125.127C268.996 125.318 268.92 125.502 268.785 125.637C268.649 125.773 268.466 125.849 268.274 125.849Z" fill="#63737A"/>
<path d="M276.935 110.603L265.842 110.641C265.731 110.641 265.621 110.618 265.518 110.573C265.416 110.529 265.325 110.463 265.25 110.381C265.174 110.298 265.117 110.201 265.082 110.095C265.047 109.989 265.034 109.877 265.045 109.766L265.387 104.937C265.401 104.744 265.486 104.563 265.627 104.429C265.767 104.296 265.953 104.219 266.146 104.215L277.277 103.911C277.388 103.91 277.499 103.933 277.601 103.978C277.703 104.023 277.794 104.089 277.87 104.171C277.945 104.253 278.002 104.351 278.037 104.456C278.072 104.562 278.085 104.674 278.075 104.785L277.695 109.842C277.695 110.044 277.615 110.237 277.472 110.38C277.33 110.522 277.136 110.603 276.935 110.603Z" fill="#B0D7C0"/>
<path d="M268.805 121.781L265.006 121.629C264.898 121.625 264.791 121.599 264.693 121.552C264.595 121.506 264.507 121.439 264.436 121.357C264.365 121.275 264.311 121.179 264.279 121.075C264.246 120.972 264.235 120.862 264.247 120.754L264.475 117.865C264.479 117.765 264.504 117.667 264.547 117.576C264.589 117.486 264.65 117.405 264.724 117.338C264.798 117.271 264.884 117.219 264.979 117.185C265.073 117.152 265.173 117.137 265.272 117.142L269.109 117.218C269.33 117.23 269.538 117.328 269.687 117.492C269.836 117.656 269.915 117.871 269.907 118.093L269.679 121.058C269.644 121.264 269.537 121.45 269.377 121.582C269.216 121.715 269.013 121.785 268.805 121.781Z" fill="#FFE779"/>
<path d="M276.022 122.009L271.958 121.857C271.849 121.853 271.742 121.827 271.644 121.781C271.546 121.734 271.459 121.667 271.387 121.585C271.316 121.503 271.262 121.407 271.23 121.304C271.197 121.2 271.186 121.09 271.198 120.982L271.426 117.979C271.431 117.879 271.455 117.781 271.498 117.69C271.541 117.6 271.601 117.519 271.675 117.452C271.749 117.385 271.836 117.333 271.93 117.299C272.024 117.266 272.124 117.251 272.224 117.256L276.326 117.332C276.547 117.344 276.755 117.442 276.904 117.606C277.053 117.77 277.132 117.985 277.124 118.207L276.896 121.286C276.863 121.493 276.756 121.68 276.595 121.812C276.434 121.945 276.231 122.015 276.022 122.009Z" fill="#F4C2C9"/>
<path d="M185.08 82.8094L172.734 83.3797C172.506 83.3889 172.28 83.347 172.071 83.2571C171.862 83.1671 171.676 83.0314 171.527 82.8599C171.377 82.6884 171.268 82.4855 171.208 82.2662C171.147 82.0469 171.136 81.8167 171.176 81.5927L173.227 61.0615C173.283 60.5407 173.505 60.0519 173.861 59.6681C174.217 59.2843 174.688 59.0262 175.203 58.9323L187.777 57.2974C188.879 57.1453 189.638 57.9438 189.524 59.0464L187.207 80.7563C187.141 81.2906 186.894 81.7861 186.507 82.1599C186.119 82.5336 185.616 82.7629 185.08 82.8094Z" fill="#22272E"/>
<path d="M184.168 82.3912L171.821 82.9615C171.594 82.9707 171.368 82.9288 171.159 82.8388C170.95 82.7489 170.764 82.6131 170.615 82.4416C170.465 82.2702 170.356 82.0673 170.295 81.848C170.235 81.6287 170.224 81.3985 170.264 81.1745L172.315 60.6433C172.371 60.1225 172.593 59.6337 172.949 59.2499C173.305 58.8661 173.776 58.608 174.291 58.5141L186.865 56.8792C187.966 56.7271 188.726 57.5255 188.612 58.6281L186.295 80.338C186.236 80.8752 185.991 81.3746 185.602 81.7497C185.214 82.1248 184.706 82.3517 184.168 82.3912Z" fill="#22272E"/>
<path d="M184.737 63.7989L175.126 64.8255C175.055 64.8333 174.982 64.8249 174.914 64.8009C174.846 64.7769 174.784 64.738 174.733 64.6869C174.682 64.6358 174.643 64.5739 174.619 64.5058C174.595 64.4376 174.587 64.365 174.595 64.2932L174.823 61.9359C174.83 61.8273 174.876 61.725 174.953 61.6481C175.03 61.5712 175.132 61.5248 175.24 61.5177L184.889 60.377C184.961 60.3692 185.034 60.3776 185.102 60.4016C185.17 60.4256 185.232 60.4646 185.283 60.5156C185.334 60.5667 185.373 60.6286 185.397 60.6967C185.421 60.7649 185.429 60.8375 185.421 60.9093L185.155 63.3807C185.154 63.4913 185.11 63.5971 185.032 63.6753C184.954 63.7535 184.848 63.7979 184.737 63.7989Z" fill="#F4C2C9"/>
<path d="M175.81 70.3385L174.556 70.4526C174.484 70.4604 174.412 70.452 174.344 70.428C174.276 70.404 174.214 70.3651 174.163 70.314C174.112 70.2629 174.073 70.201 174.049 70.1329C174.025 70.0648 174.017 69.9921 174.024 69.9203L174.176 68.5515C174.183 68.443 174.23 68.3407 174.307 68.2638C174.383 68.1868 174.486 68.1405 174.594 68.1333L175.848 68.0193C175.92 68.0114 175.992 68.0198 176.06 68.0438C176.128 68.0678 176.19 68.1068 176.241 68.1578C176.292 68.2089 176.331 68.2708 176.355 68.339C176.379 68.4071 176.387 68.4797 176.38 68.5515L176.228 69.9203C176.22 70.0289 176.174 70.1312 176.097 70.2081C176.02 70.285 175.918 70.3314 175.81 70.3385Z" fill="#B0D7C0"/>
<path d="M184.129 69.6162L182.761 69.7302C182.689 69.738 182.617 69.7297 182.549 69.7057C182.481 69.6817 182.419 69.6427 182.368 69.5916C182.317 69.5406 182.278 69.4787 182.254 69.4105C182.23 69.3424 182.222 69.2697 182.229 69.1979L182.381 67.7531C182.388 67.6446 182.435 67.5423 182.512 67.4654C182.589 67.3884 182.691 67.3421 182.799 67.3349L184.167 67.1828C184.239 67.175 184.311 67.1834 184.379 67.2074C184.447 67.2314 184.509 67.2703 184.56 67.3214C184.611 67.3725 184.65 67.4344 184.674 67.5025C184.698 67.5707 184.706 67.6433 184.699 67.7151L184.547 69.1599C184.541 69.2727 184.496 69.3799 184.42 69.4631C184.343 69.5463 184.241 69.6004 184.129 69.6162Z" fill="#B0D7C0"/>
<path d="M179.912 69.9583L178.621 70.0724C178.549 70.0802 178.476 70.0718 178.408 70.0478C178.34 70.0238 178.278 69.9849 178.227 69.9338C178.176 69.8827 178.137 69.8208 178.113 69.7527C178.089 69.6846 178.081 69.6119 178.089 69.5401L178.241 68.1333C178.248 68.0248 178.294 67.9225 178.371 67.8455C178.448 67.7686 178.55 67.7222 178.659 67.7151L179.95 67.601C180.022 67.5932 180.095 67.6016 180.163 67.6256C180.231 67.6496 180.293 67.6886 180.344 67.7396C180.395 67.7907 180.434 67.8526 180.458 67.9207C180.481 67.9889 180.49 68.0615 180.482 68.1333L180.33 69.5401C180.329 69.6507 180.285 69.7565 180.207 69.8347C180.128 69.913 180.023 69.9573 179.912 69.9583Z" fill="#B0D7C0"/>
<path d="M175.316 75.0152L174.062 75.0912C173.991 75.0963 173.92 75.086 173.853 75.0611C173.786 75.0361 173.725 74.9971 173.675 74.9466C173.625 74.8961 173.586 74.8354 173.561 74.7685C173.536 74.7016 173.525 74.6301 173.531 74.5589L173.683 73.1902C173.698 73.0783 173.752 72.9755 173.835 72.8992C173.919 72.8229 174.026 72.7779 174.138 72.7719L175.392 72.6579C175.464 72.65 175.536 72.6584 175.604 72.6824C175.672 72.7064 175.734 72.7454 175.785 72.7965C175.836 72.8475 175.875 72.9094 175.899 72.9776C175.923 73.0457 175.932 73.1183 175.924 73.1902L175.772 74.5589C175.764 74.6773 175.713 74.7887 175.629 74.8726C175.546 74.9565 175.434 75.0072 175.316 75.0152Z" fill="#B0D7C0"/>
<path d="M183.635 74.4448L182.267 74.5589C182.196 74.564 182.125 74.5537 182.058 74.5288C181.991 74.5038 181.931 74.4648 181.88 74.4143C181.83 74.3638 181.791 74.3031 181.766 74.2362C181.741 74.1693 181.731 74.0978 181.736 74.0266L181.888 72.6198C181.903 72.508 181.957 72.4052 182.041 72.3289C182.124 72.2526 182.231 72.2076 182.343 72.2016L183.711 72.0876C183.783 72.0797 183.855 72.0881 183.923 72.1121C183.992 72.1361 184.053 72.1751 184.104 72.2261C184.155 72.2772 184.194 72.3391 184.218 72.4072C184.242 72.4754 184.251 72.548 184.243 72.6198L184.091 74.0646C184.055 74.1623 183.994 74.2488 183.914 74.3155C183.834 74.3822 183.738 74.4268 183.635 74.4448Z" fill="#B0D7C0"/>
<path d="M179.418 74.7489L178.127 74.825C178.056 74.83 177.984 74.8198 177.917 74.7948C177.851 74.7699 177.79 74.7308 177.74 74.6803C177.689 74.6299 177.65 74.5691 177.625 74.5022C177.6 74.4353 177.59 74.3639 177.595 74.2927L177.747 72.8859C177.763 72.7741 177.817 72.6712 177.9 72.5949C177.983 72.5186 178.09 72.4736 178.203 72.4677L179.494 72.3536C179.566 72.3458 179.639 72.3542 179.707 72.3782C179.775 72.4021 179.837 72.4411 179.888 72.4922C179.939 72.5433 179.978 72.6052 180.002 72.6733C180.026 72.7414 180.034 72.8141 180.026 72.8859L179.874 74.2927C179.854 74.4061 179.799 74.5106 179.718 74.5921C179.636 74.6736 179.532 74.7283 179.418 74.7489Z" fill="#B0D7C0"/>
<path d="M174.823 79.6917L173.607 79.7677C173.538 79.7717 173.469 79.7603 173.405 79.7344C173.34 79.7085 173.282 79.6687 173.235 79.6178C173.188 79.567 173.153 79.5063 173.132 79.4402C173.111 79.3741 173.104 79.3042 173.113 79.2354L173.265 77.8667C173.281 77.7549 173.335 77.652 173.418 77.5757C173.501 77.4994 173.609 77.4544 173.721 77.4484L174.937 77.3724C175.007 77.3647 175.078 77.3735 175.144 77.3981C175.21 77.4228 175.27 77.4625 175.317 77.5143C175.365 77.566 175.401 77.6282 175.42 77.696C175.44 77.7638 175.444 77.8353 175.431 77.9047L175.279 79.2734C175.269 79.3877 175.217 79.4942 175.133 79.5717C175.048 79.6492 174.937 79.6921 174.823 79.6917Z" fill="#B0D7C0"/>
<path d="M183.104 79.2354L181.736 79.3115C181.667 79.3154 181.598 79.304 181.533 79.2781C181.469 79.2522 181.411 79.2124 181.364 79.1616C181.317 79.1107 181.282 79.0501 181.261 78.984C181.239 78.9179 181.233 78.848 181.242 78.7792L181.394 77.3724C181.41 77.2606 181.464 77.1577 181.547 77.0814C181.63 77.0051 181.737 76.9601 181.85 76.9542L183.218 76.8781C183.288 76.8704 183.359 76.8792 183.425 76.9039C183.491 76.9285 183.55 76.9683 183.598 77.02C183.646 77.0717 183.682 77.134 183.701 77.2018C183.721 77.2696 183.724 77.341 183.712 77.4104L183.56 78.8552C183.536 78.9598 183.478 79.0536 183.396 79.1222C183.313 79.1909 183.211 79.2307 183.104 79.2354Z" fill="#FFE779"/>
<path d="M178.924 79.4635L177.633 79.5396C177.563 79.5435 177.494 79.5321 177.43 79.5062C177.366 79.4803 177.308 79.4405 177.261 79.3897C177.213 79.3388 177.178 79.2782 177.157 79.2121C177.136 79.146 177.13 79.0761 177.139 79.0073L177.291 77.6385C177.306 77.5267 177.361 77.4238 177.444 77.3475C177.527 77.2712 177.634 77.2263 177.747 77.2203L179.038 77.1442C179.108 77.1365 179.179 77.1454 179.245 77.17C179.311 77.1946 179.371 77.2344 179.419 77.2861C179.467 77.3379 179.502 77.4001 179.522 77.4679C179.541 77.5357 179.545 77.6071 179.532 77.6765L179.38 79.0833C179.356 79.1879 179.299 79.2817 179.216 79.3503C179.134 79.419 179.031 79.4588 178.924 79.4635Z" fill="#FFE779"/>
<path d="M197.045 82.5813L256.534 76.4219C256.792 76.396 257.052 76.427 257.296 76.5129C257.54 76.5987 257.763 76.7372 257.948 76.9185C258.132 77.0999 258.275 77.3197 258.366 77.5624C258.456 77.8051 258.492 78.0647 258.472 78.3229L253.381 136.267C253.323 136.952 253.002 137.589 252.485 138.043C251.968 138.496 251.295 138.732 250.608 138.7L192.828 135.582C192.36 135.555 191.922 135.344 191.609 134.995C191.296 134.646 191.134 134.188 191.156 133.719L194.651 85.0906C194.696 84.4588 194.959 83.8624 195.396 83.4042C195.833 82.9461 196.416 82.655 197.045 82.5813Z" fill="#F8AB5D"/>
<path d="M194.88 81.9349L255.053 75.6995C255.315 75.6713 255.579 75.702 255.827 75.7895C256.075 75.877 256.3 76.0189 256.486 76.2049C256.671 76.3909 256.813 76.6163 256.901 76.8644C256.988 77.1125 257.019 77.377 256.991 77.6386L251.862 136.229C251.811 136.924 251.486 137.571 250.959 138.027C250.432 138.483 249.746 138.711 249.051 138.662L190.587 135.506C190.351 135.495 190.12 135.436 189.908 135.334C189.695 135.231 189.505 135.087 189.35 134.91C189.194 134.732 189.075 134.526 189 134.301C188.926 134.077 188.897 133.841 188.916 133.605L192.449 84.4063C192.515 83.78 192.792 83.1947 193.233 82.7459C193.675 82.2972 194.255 82.0113 194.88 81.9349Z" fill="#FFE779"/>
<path d="M201.11 94.5578L198.375 94.7099L198.033 99.8047L200.73 99.7286L201.11 94.5578Z" fill="#6DAFA7"/>
<path d="M198.034 99.8047L197.844 102.314L200.541 102.238L200.731 99.7286L198.034 99.8047Z" fill="#B0D7C0"/>
<path d="M206.998 87.6381L204.263 87.8282L203.807 94.4058L206.504 94.2917L206.998 87.6381Z" fill="#6DAFA7"/>
<path d="M203.806 94.4057L203.236 102.162L205.933 102.086L206.503 94.2916L203.806 94.4057Z" fill="#B0D7C0"/>
<path d="M209.505 90.0333L209.201 94.1396L211.898 93.9875L212.202 89.8432L209.505 90.0333Z" fill="#6DAFA7"/>
<path d="M209.201 94.1396L208.631 102.048L211.328 101.972L211.898 93.9875L209.201 94.1396Z" fill="#B0D7C0"/>
<path d="M217.293 93.6833L214.596 93.8354L214.406 96.725L217.103 96.5729L217.293 93.6833Z" fill="#6DAFA7"/>
<path d="M214.405 96.725L214.025 101.896L216.723 101.82L217.102 96.5729L214.405 96.725Z" fill="#B0D7C0"/>
<path d="M223.03 89.0828L222.688 93.4172L222.498 96.2688L219.801 96.4208L219.991 93.5313L220.333 89.2729L223.03 89.0828Z" fill="#6DAFA7"/>
<path d="M219.801 96.4208L219.383 101.744L222.08 101.706L222.498 96.2687L219.801 96.4208Z" fill="#B0D7C0"/>
<path d="M244.721 85.9651L239.896 93.6073L235.68 87.8662C237.313 86.4935 239.329 85.6572 241.454 85.4709C242.566 85.3905 243.682 85.5593 244.721 85.9651Z" fill="#22272E"/>
<path d="M248.482 92.9989L239.896 93.6073L244.721 85.9651C247.38 87.0297 248.938 89.6911 248.482 92.9989Z" fill="#F4C2C9"/>
<path d="M248.481 92.999C248.481 93.113 248.443 93.2271 248.443 93.3411C247.646 97.8656 243.429 101.63 238.984 101.972L239.896 93.6073L248.481 92.999Z" fill="#B0D7C0"/>
<path d="M239.896 93.6072L238.984 101.972C238.745 102.003 238.504 102.016 238.262 102.01C233.742 102.01 230.969 98.3218 231.918 93.8734C232.467 91.5176 233.792 89.4151 235.679 87.9041L239.896 93.6072Z" fill="white"/>
<path d="M247.267 108.473L245.291 127.75L195.641 126.838L195.717 125.355L206.467 117.941C206.707 117.77 206.996 117.682 207.29 117.689C207.585 117.696 207.869 117.797 208.101 117.979L212.128 120.944C212.277 121.055 212.447 121.135 212.627 121.18C212.807 121.225 212.995 121.233 213.179 121.205C213.362 121.177 213.539 121.112 213.697 121.015C213.856 120.918 213.994 120.791 214.103 120.64L218.092 115.317C218.225 115.139 218.399 114.995 218.598 114.896C218.798 114.798 219.019 114.749 219.241 114.753C219.464 114.756 219.682 114.813 219.879 114.918C220.075 115.022 220.244 115.172 220.371 115.355L223.904 120.26C224.014 120.415 224.154 120.547 224.316 120.646C224.478 120.746 224.658 120.812 224.846 120.841C225.034 120.869 225.226 120.859 225.41 120.812C225.594 120.764 225.766 120.68 225.917 120.564C226.157 120.383 226.447 120.282 226.747 120.275C227.047 120.268 227.341 120.356 227.589 120.526L230.096 122.313C230.252 122.423 230.429 122.501 230.616 122.541C230.802 122.582 230.995 122.584 231.183 122.549C231.371 122.513 231.549 122.441 231.709 122.335C231.868 122.229 232.004 122.092 232.109 121.933L237.732 113.264C237.837 113.105 237.973 112.968 238.132 112.862C238.292 112.756 238.47 112.684 238.658 112.648C238.846 112.613 239.039 112.615 239.225 112.656C239.412 112.696 239.589 112.774 239.745 112.884L241.379 114.063C241.528 114.174 241.697 114.254 241.878 114.299C242.058 114.344 242.246 114.353 242.43 114.325C242.614 114.296 242.79 114.232 242.949 114.134C243.107 114.037 243.245 113.909 243.354 113.758L247.267 108.473Z" fill="#6DAFA7"/>
<path d="M211.139 114.595H208.974C208.924 114.593 208.874 114.603 208.828 114.623C208.782 114.642 208.741 114.672 208.708 114.709L208.214 115.203C208.143 115.273 208.047 115.312 207.948 115.312C207.848 115.312 207.753 115.273 207.682 115.203L207.302 114.709C207.269 114.672 207.228 114.642 207.182 114.623C207.136 114.603 207.086 114.593 207.036 114.595H204.947C204.903 114.597 204.859 114.59 204.819 114.573C204.778 114.556 204.742 114.53 204.713 114.497C204.683 114.464 204.662 114.425 204.65 114.383C204.638 114.34 204.635 114.296 204.643 114.253L204.947 110.146C204.954 110.048 204.996 109.955 205.066 109.885C205.136 109.816 205.228 109.773 205.327 109.766L211.519 109.538C211.609 109.538 211.696 109.574 211.761 109.638C211.825 109.702 211.861 109.789 211.861 109.88L211.519 114.177C211.524 114.23 211.518 114.283 211.502 114.334C211.485 114.384 211.458 114.431 211.422 114.47C211.386 114.51 211.342 114.541 211.294 114.563C211.245 114.584 211.192 114.595 211.139 114.595Z" fill="white"/>
<path d="M231.425 116.648L229.259 116.61C229.21 116.609 229.16 116.618 229.114 116.638C229.068 116.657 229.027 116.687 228.994 116.724L228.5 117.218C228.465 117.256 228.422 117.285 228.375 117.304C228.327 117.323 228.276 117.33 228.225 117.327C228.174 117.323 228.124 117.308 228.08 117.283C228.035 117.257 227.997 117.222 227.968 117.18L227.588 116.686C227.555 116.649 227.513 116.619 227.468 116.6C227.422 116.58 227.372 116.57 227.322 116.572L225.271 116.534C225.081 116.534 224.967 116.382 224.967 116.154L225.271 112.009C225.276 111.916 225.312 111.828 225.374 111.759C225.437 111.69 225.521 111.644 225.613 111.629L231.805 111.477C231.853 111.478 231.9 111.489 231.943 111.509C231.987 111.528 232.026 111.557 232.058 111.593C232.09 111.628 232.115 111.67 232.13 111.716C232.145 111.761 232.151 111.809 232.147 111.857L231.805 116.268C231.808 116.318 231.801 116.369 231.783 116.417C231.765 116.465 231.737 116.508 231.701 116.544C231.665 116.58 231.622 116.608 231.574 116.626C231.526 116.644 231.476 116.651 231.425 116.648Z" fill="#F4C2C9"/>
<path d="M127.374 226.338C127.222 226.832 126.88 228.809 126.614 230.634C123.774 231.059 120.873 230.704 118.219 229.608C118.409 227.707 118.599 225.73 118.599 225.73C118.599 224.665 127.678 225.426 127.374 226.338Z" fill="#22272E"/>
<path d="M126.616 230.596C126.388 232.193 126.16 233.6 126.16 233.6C126.16 233.6 125.134 235.995 122.551 235.995C119.968 235.995 117.879 233.828 117.917 232.916C117.955 232.497 118.068 231.053 118.22 229.57C120.873 230.671 123.776 231.026 126.616 230.596Z" fill="#F4C2C9"/>
<path d="M117.954 232.193C118.326 232.606 118.719 233 119.131 233.372C119.549 233.752 120.841 232.573 122.664 232.802C124.488 233.03 125.058 233.752 125.058 233.752C125.479 233.667 125.879 233.499 126.235 233.258C126.27 234.208 126.463 235.146 126.805 236.033C127.375 237.516 130.262 241.851 130.262 242.687C130.262 243.523 130.072 244.17 129.464 244.436C128.856 244.702 124.83 244.74 121.449 244.816C118.068 244.892 115.447 245.082 115.067 243.752C114.687 242.421 116.244 238.277 116.89 235.729C117.536 233.182 117.422 232.231 117.954 232.193Z" fill="#22272E"/>
<path d="M118.523 239.227C118.523 239.227 122.588 237.06 126.463 239.227" stroke="white" stroke-width="1.16191" stroke-linecap="round" stroke-linejoin="round"/>
<path d="M119.283 237.098C121.394 236.498 123.63 236.498 125.741 237.098" stroke="white" stroke-width="1.16191" stroke-linecap="round" stroke-linejoin="round"/>
<path d="M166.807 228.961C162.476 230.444 157.993 229.532 158.031 229.57C157.879 227.441 157.689 225.197 157.689 225.197C158.259 223.867 166.427 223.258 166.503 223.829C166.503 224.133 166.655 226.642 166.807 228.961Z" fill="#22272E"/>
<path d="M167.034 232.992C167.034 232.992 166.465 234.779 163.995 235.691C161.526 236.604 158.373 234.132 158.335 233.41C158.297 233.106 158.183 231.357 158.031 229.57C158.031 229.532 162.476 230.444 166.807 228.961C166.921 231.053 167.034 232.992 167.034 232.992Z" fill="#F4C2C9"/>
<path d="M158.26 232.878C157.994 232.878 157.804 233.258 157.652 235.653C157.5 238.048 156.74 243.333 157.652 244.132C158.564 244.93 176.76 244.702 178.85 244.55C180.939 244.398 182.079 243.029 181.433 242.117C180.787 241.204 176.304 239.531 172.354 236.87C168.403 234.208 167.453 233.638 166.997 232.992C166.997 232.992 167.225 230.824 166.047 231.167C164.87 231.509 164.072 234.322 162.553 234.703C161.033 235.083 160.843 232.726 158.26 232.878Z" fill="#22272E"/>
<path d="M173.226 236.946C173.226 236.946 172.2 236.642 169.883 239.113" stroke="white" stroke-width="1.16191" stroke-linecap="round" stroke-linejoin="round"/>
<path d="M170.719 235.311C170.719 235.311 168.896 235.235 166.807 237.934" stroke="white" stroke-width="1.16191" stroke-linecap="round" stroke-linejoin="round"/>
<path d="M119.664 230.102L119.892 228.581" stroke="#63737A" stroke-width="1.16191" stroke-linecap="round" stroke-linejoin="round"/>
<path d="M122.285 230.672L122.513 229.152" stroke="#63737A" stroke-width="1.16191" stroke-linecap="round" stroke-linejoin="round"/>
<path d="M125.172 230.786L125.438 229.418" stroke="#63737A" stroke-width="1.16191" stroke-linecap="round" stroke-linejoin="round"/>
<path d="M159.741 229.76L159.627 228.163" stroke="#63737A" stroke-width="1.16191" stroke-linecap="round" stroke-linejoin="round"/>
<path d="M162.893 229.722L162.779 227.973" stroke="#63737A" stroke-width="1.16191" stroke-linecap="round" stroke-linejoin="round"/>
<path d="M165.743 229.266L165.629 227.631" stroke="#63737A" stroke-width="1.16191" stroke-linecap="round" stroke-linejoin="round"/>
<path d="M117.118 141.209C116.468 144.209 116.112 147.265 116.055 150.334C115.941 155.543 120.005 171.854 121.487 177.367C122.968 182.88 122.664 183.755 122.437 184.819C122.209 185.884 119.929 194.324 119.17 203.069C118.41 211.814 115.675 218.848 115.979 221.547C116.396 225.197 117.954 226.262 118.6 226.68C119.246 227.098 124.564 228.809 128.173 227.973C128.173 227.973 132.01 225.54 132.731 222.118C133.453 218.696 133.035 214.552 135.505 203.373C137.974 192.195 139.113 187.595 139.455 183.146C139.645 180.485 139.683 172.881 139.721 167.063C139.759 163.109 139.759 159.954 139.797 159.649C139.911 158.889 141.773 159.763 142.76 157.33C143.178 156.228 143.406 154.136 143.444 151.893C143.52 149.042 143.33 145.924 142.95 144.213C142.342 141.057 117.726 137.863 117.118 141.209Z" fill="#22272E"/>
<path d="M169.237 222.232C168.591 223.829 167.413 225.654 166.35 226.072C165.286 226.49 160.5 227.136 158.068 226.908C158.068 226.908 154.004 225.73 153.586 222.65C153.168 219.57 153.89 216.148 152.522 209.229C151.154 202.309 149.977 190.066 149.635 186.454C149.293 182.842 141.847 172.082 138.352 165.581C134.857 159.079 131.097 147.179 134.212 144.403C137.327 141.628 148.457 140.373 151.762 142.616C151.762 142.616 155.599 151.969 159.436 163.147C162.969 173.413 163.691 176.873 164.184 179.839C164.217 180.108 164.267 180.375 164.336 180.637C164.488 181.549 164.678 183.907 164.944 186.948C165.552 194.667 166.274 206.643 166.578 209.381C166.996 213.183 169.883 220.635 169.237 222.232Z" fill="#22272E"/>
<path d="M137.67 160.22C140.142 159.328 142.683 158.642 145.268 158.167" stroke="#63737A" stroke-width="1.16191" stroke-linecap="round" stroke-linejoin="round"/>
<path d="M137.466 187.705C138.028 184.948 136.283 182.263 133.569 181.709C130.855 181.154 128.199 182.94 127.637 185.698C127.075 188.455 128.819 191.14 131.533 191.694C134.247 192.249 136.903 190.463 137.466 187.705Z" stroke="#63737A" stroke-width="1.16215" stroke-linecap="round" stroke-linejoin="round"/>
<path d="M164.944 186.91C164.481 187.493 163.891 187.963 163.22 188.286C162.549 188.609 161.814 188.775 161.07 188.773C159.73 188.778 158.442 188.251 157.491 187.306C156.54 186.361 156.003 185.077 155.998 183.736C155.993 182.395 156.521 181.106 157.464 180.154C158.408 179.203 159.692 178.665 161.032 178.66C162.183 178.66 163.299 179.064 164.185 179.801" stroke="#63737A" stroke-width="1.16191" stroke-linecap="round" stroke-linejoin="round"/>
<path d="M117.992 159.193C119.336 157.954 120.409 156.449 121.141 154.774C121.873 153.098 122.25 151.289 122.247 149.46C120.818 149.379 119.397 149.202 117.992 148.928" stroke="#63737A" stroke-width="1.16191" stroke-linecap="round" stroke-linejoin="round"/>
<path d="M139.721 167.064C139.759 163.109 139.759 159.954 139.797 159.65C139.911 158.889 141.772 159.764 142.76 157.33C143.178 156.228 143.406 154.137 143.444 151.893" stroke="#63737A" stroke-width="1.16191" stroke-linecap="round" stroke-linejoin="round"/>
<path d="M150.927 97.6755C150.927 97.6755 154.042 97.8276 159.056 107.865C164.071 117.903 165.856 121.515 165.856 121.515C165.856 121.515 169.161 120.716 174.556 119.842C179.95 118.967 187.548 117.865 187.548 117.865C187.548 117.865 189.599 117.903 190.473 120.83C190.695 121.571 190.728 122.357 190.569 123.114C190.41 123.871 190.063 124.576 189.561 125.165C189.372 125.403 189.123 125.587 188.839 125.697C186.522 126.685 172.998 132.389 168.401 133.377C163.349 134.442 160.88 134.29 156.397 128.13C151.915 121.971 148.382 117.18 146.748 114.709C145.115 112.123 143.937 98.0557 150.927 97.6755Z" fill="#6DAFA7"/>
<path d="M159.475 131.628C159.475 131.628 159.209 129.613 163.121 129.613C167.034 129.613 169.048 132.541 168.098 133.377" stroke="#22272E" stroke-width="1.16191" stroke-linecap="round" stroke-linejoin="round"/>
<path d="M165.856 121.477C165.856 121.477 164.223 122.237 163.881 123.378" stroke="#22272E" stroke-width="1.16191" stroke-linecap="round" stroke-linejoin="round"/>
<path d="M187.738 118.169C187.738 118.169 189.41 117.56 189.828 117.332C190.245 117.104 191.157 115.507 191.917 114.519C192.677 113.53 194.842 112.96 195.45 113.074C195.615 113.096 195.774 113.151 195.918 113.236C196.061 113.321 196.186 113.434 196.286 113.568C196.286 113.568 198.185 112.884 199.477 112.352C200.768 111.819 203.161 110.641 203.503 111.591C203.693 112.161 202.212 112.998 201.186 113.568C199.932 114.291 199.097 114.823 199.097 114.823C199.296 114.94 199.467 115.1 199.598 115.29C199.729 115.481 199.817 115.698 199.856 115.926C200.008 116.724 200.426 117.598 199.666 118.815C199.439 119.157 200.312 120.108 199.628 120.982C198.451 122.389 195.602 123.111 194.082 123.568C192.563 124.024 188.992 124.252 188.992 124.252C188.992 124.252 187.852 123.986 187.358 121.515C186.864 119.043 187.738 118.169 187.738 118.169Z" fill="#F4C2C9"/>
<path d="M196.285 113.568C196.285 113.568 196.551 114.253 196.855 115.279C197.159 116.306 197.387 117.104 196.589 117.142C195.791 117.18 195.07 115.964 194.766 115.355" stroke="#E26E85" stroke-width="1.16191" stroke-linecap="round" stroke-linejoin="round"/>
<path d="M195.298 116.23C195.298 116.23 196.172 117.979 194.158 119.499" stroke="#E26E85" stroke-width="1.16191" stroke-linecap="round" stroke-linejoin="round"/>
<path d="M199.135 114.823L197.008 115.811" stroke="#E26E85" stroke-width="1.16191" stroke-linecap="round" stroke-linejoin="round"/>
<path d="M195.944 116.914C195.944 116.914 195.564 117.522 195.944 117.865C196.324 118.207 198.413 117.446 199.933 116.572" stroke="#E26E85" stroke-width="1.16191" stroke-linecap="round" stroke-linejoin="round"/>
<path d="M196.286 117.941C196.108 118.035 195.973 118.194 195.909 118.385C195.846 118.576 195.858 118.785 195.944 118.967C196.248 119.652 197.881 119.385 199.667 118.815" stroke="#E26E85" stroke-width="1.16191" stroke-linecap="round" stroke-linejoin="round"/>
<path d="M196.627 119.385C196.627 119.385 195.678 119.499 196.172 120.45C196.476 121.02 198.299 120.83 198.679 120.982" stroke="#E26E85" stroke-width="1.16191" stroke-linecap="round" stroke-linejoin="round"/>
<path d="M185.535 118.511C185.231 119.043 184.851 120.07 185.117 121.895C185.192 122.682 185.442 123.443 185.85 124.121C186.257 124.799 186.812 125.376 187.472 125.811" stroke="#22272E" stroke-width="1.16191" stroke-linecap="round" stroke-linejoin="round"/>
<path d="M138.62 83.7599C138.62 83.7599 137.404 89.8812 136.72 91.5541C136.037 93.227 139.76 95.8505 143.482 96.0026C147.205 96.1546 146.825 93.9875 146.825 93.9875L147.927 87.9041C147.927 87.9421 139.949 82.3531 138.62 83.7599Z" fill="#F4C2C9"/>
<path d="M140.29 85.5849C139.758 90.2234 143.101 92.4667 146.824 94.2156V93.9875L147.432 90.7557C144.659 89.8432 142.228 87.8662 140.29 85.5849Z" fill="#E26E85"/>
<path d="M122.664 96.0406C123.5 93.5693 126.691 92.0865 129.274 92.3146C131.933 92.5427 137.023 92.6188 141.924 94.1396C150.281 96.725 152.295 98.2458 152.789 98.7021C155.562 101.364 155.296 105.318 153.7 116.23C152.675 123.416 151.801 125.241 152.029 128.777C152.257 132.313 152.903 138.586 153.32 139.879C153.738 141.171 152.675 143.415 151.763 144.213C150.851 145.011 143.481 146.684 136.644 146.532C129.806 146.38 119.055 144.517 117.345 143.377C115.636 142.236 114.42 140.259 114.8 138.548C115.273 135.932 115.881 133.344 116.624 130.792C117.687 127.18 117.763 122.465 119.435 114.899C120.726 109.31 120.916 101.211 122.664 96.0406Z" fill="#FFE779"/>
<path d="M153.43 87.8849C154.349 87.4246 154.912 86.686 154.687 86.2353C154.461 85.7846 153.533 85.7924 152.614 86.2528C151.695 86.7132 151.132 87.4518 151.357 87.9025C151.582 88.3532 152.51 88.3453 153.43 87.8849Z" fill="#F8AB5D"/>
<path d="M159.697 92.1514C160.617 91.691 161.179 90.9524 160.954 90.5017C160.729 90.051 159.801 90.0589 158.881 90.5192C157.962 90.9796 157.399 91.7182 157.625 92.1689C157.85 92.6196 158.778 92.6117 159.697 92.1514Z" fill="#F8AB5D"/>
<path d="M145.756 91.7343C146.675 91.2739 147.238 90.5353 147.013 90.0846C146.787 89.6339 145.859 89.6418 144.94 90.1022C144.021 90.5626 143.458 91.3012 143.683 91.7519C143.909 92.2026 144.837 92.1947 145.756 91.7343Z" fill="#F8AB5D"/>
<path d="M152.059 95.9832C152.978 95.5228 153.541 94.7842 153.315 94.3335C153.09 93.8828 152.162 93.8907 151.243 94.3511C150.323 94.8115 149.761 95.5501 149.986 96.0007C150.211 96.4514 151.139 96.4436 152.059 95.9832Z" fill="#F8AB5D"/>
<path d="M159.203 99.4455C160.123 98.9851 160.685 98.2465 160.46 97.7958C160.235 97.3451 159.307 97.353 158.387 97.8134C157.468 98.2738 156.905 99.0123 157.131 99.463C157.356 99.9137 158.284 99.9059 159.203 99.4455Z" fill="#F8AB5D"/>
<path d="M165.469 103.712C166.388 103.252 166.951 102.513 166.726 102.062C166.5 101.612 165.572 101.619 164.653 102.08C163.734 102.54 163.171 103.279 163.396 103.729C163.622 104.18 164.549 104.172 165.469 103.712Z" fill="#F8AB5D"/>
<path d="M151.533 103.293C152.453 102.833 153.015 102.094 152.79 101.643C152.565 101.193 151.637 101.201 150.717 101.661C149.798 102.121 149.235 102.86 149.461 103.311C149.686 103.761 150.614 103.754 151.533 103.293Z" fill="#F8AB5D"/>
<path d="M157.838 107.542C158.757 107.082 159.32 106.343 159.095 105.892C158.869 105.442 157.942 105.45 157.022 105.91C156.103 106.37 155.54 107.109 155.765 107.56C155.991 108.01 156.919 108.002 157.838 107.542Z" fill="#F8AB5D"/>
<path d="M138.127 95.5644C139.046 95.1041 139.609 94.3655 139.384 93.9148C139.159 93.4641 138.231 93.4719 137.311 93.9323C136.392 94.3927 135.829 95.1313 136.054 95.582C136.28 96.0327 137.208 96.0248 138.127 95.5644Z" fill="#F8AB5D"/>
<path d="M144.393 99.8309C145.312 99.3705 145.875 98.632 145.649 98.1813C145.424 97.7306 144.496 97.7384 143.577 98.1988C142.657 98.6592 142.095 99.3978 142.32 99.8485C142.545 100.299 143.473 100.291 144.393 99.8309Z" fill="#F8AB5D"/>
<path d="M130.44 99.3786C131.359 98.9182 131.922 98.1796 131.696 97.7289C131.471 97.2782 130.543 97.2861 129.624 97.7465C128.704 98.2069 128.142 98.9454 128.367 99.3961C128.592 99.8468 129.52 99.839 130.44 99.3786Z" fill="#F8AB5D"/>
<path d="M136.742 103.627C137.662 103.167 138.224 102.429 137.999 101.978C137.774 101.527 136.846 101.535 135.926 101.995C135.007 102.456 134.444 103.194 134.67 103.645C134.895 104.096 135.823 104.088 136.742 103.627Z" fill="#F8AB5D"/>
<path d="M143.881 107.09C144.8 106.629 145.363 105.891 145.138 105.44C144.912 104.989 143.984 104.997 143.065 105.458C142.146 105.918 141.583 106.657 141.808 107.107C142.034 107.558 142.962 107.55 143.881 107.09Z" fill="#F8AB5D"/>
<path d="M150.168 111.395C151.087 110.934 151.65 110.196 151.425 109.745C151.2 109.294 150.272 109.302 149.352 109.763C148.433 110.223 147.87 110.962 148.095 111.412C148.321 111.863 149.249 111.855 150.168 111.395Z" fill="#F8AB5D"/>
<path d="M136.215 110.943C137.134 110.482 137.697 109.744 137.472 109.293C137.246 108.842 136.318 108.85 135.399 109.31C134.48 109.771 133.917 110.509 134.142 110.96C134.368 111.411 135.296 111.403 136.215 110.943Z" fill="#F8AB5D"/>
<path d="M142.516 115.191C143.435 114.731 143.998 113.992 143.772 113.542C143.547 113.091 142.619 113.099 141.7 113.559C140.78 114.02 140.218 114.758 140.443 115.209C140.668 115.66 141.596 115.652 142.516 115.191Z" fill="#F8AB5D"/>
<path d="M165.133 111.307C166.052 110.847 166.615 110.108 166.39 109.657C166.164 109.207 165.236 109.215 164.317 109.675C163.398 110.135 162.835 110.874 163.06 111.325C163.286 111.775 164.214 111.768 165.133 111.307Z" fill="#F8AB5D"/>
<path d="M171.402 115.572C172.322 115.111 172.885 114.373 172.659 113.922C172.434 113.471 171.506 113.479 170.587 113.94C169.667 114.4 169.105 115.139 169.33 115.589C169.555 116.04 170.483 116.032 171.402 115.572Z" fill="#F8AB5D"/>
<path d="M157.445 115.121C158.365 114.661 158.927 113.922 158.702 113.472C158.477 113.021 157.549 113.029 156.63 113.489C155.71 113.95 155.147 114.688 155.373 115.139C155.598 115.59 156.526 115.582 157.445 115.121Z" fill="#F8AB5D"/>
<path d="M163.752 119.372C164.671 118.912 165.234 118.173 165.009 117.723C164.784 117.272 163.856 117.28 162.936 117.74C162.017 118.201 161.454 118.939 161.679 119.39C161.905 119.841 162.833 119.833 163.752 119.372Z" fill="#F8AB5D"/>
<path d="M170.908 122.866C171.828 122.406 172.39 121.667 172.165 121.216C171.94 120.766 171.012 120.774 170.092 121.234C169.173 121.694 168.61 122.433 168.836 122.884C169.061 123.334 169.989 123.326 170.908 122.866Z" fill="#F8AB5D"/>
<path d="M177.176 127.132C178.095 126.672 178.658 125.933 178.433 125.483C178.207 125.032 177.279 125.04 176.36 125.5C175.441 125.961 174.878 126.699 175.103 127.15C175.329 127.601 176.257 127.593 177.176 127.132Z" fill="#F8AB5D"/>
<path d="M163.223 126.68C164.142 126.22 164.705 125.481 164.48 125.031C164.254 124.58 163.326 124.588 162.407 125.048C161.487 125.508 160.925 126.247 161.15 126.698C161.375 127.148 162.303 127.141 163.223 126.68Z" fill="#F8AB5D"/>
<path d="M169.524 130.929C170.443 130.469 171.006 129.73 170.78 129.279C170.555 128.829 169.627 128.837 168.708 129.297C167.788 129.757 167.226 130.496 167.451 130.947C167.676 131.397 168.604 131.39 169.524 130.929Z" fill="#F8AB5D"/>
<path d="M149.813 118.951C150.732 118.491 151.295 117.752 151.069 117.302C150.844 116.851 149.916 116.859 148.997 117.319C148.077 117.78 147.515 118.518 147.74 118.969C147.965 119.42 148.893 119.412 149.813 118.951Z" fill="#F8AB5D"/>
<path d="M156.082 123.218C157.002 122.757 157.564 122.019 157.339 121.568C157.114 121.118 156.186 121.125 155.266 121.586C154.347 122.046 153.784 122.785 154.01 123.235C154.235 123.686 155.163 123.678 156.082 123.218Z" fill="#F8AB5D"/>
<path d="M142.143 122.801C143.062 122.34 143.625 121.602 143.399 121.151C143.174 120.7 142.246 120.708 141.327 121.169C140.407 121.629 139.845 122.368 140.07 122.818C140.295 123.269 141.223 123.261 142.143 122.801Z" fill="#F8AB5D"/>
<path d="M148.447 127.052C149.367 126.591 149.929 125.853 149.704 125.402C149.479 124.952 148.551 124.959 147.631 125.42C146.712 125.88 146.149 126.619 146.375 127.069C146.6 127.52 147.528 127.512 148.447 127.052Z" fill="#F8AB5D"/>
<path d="M155.588 130.512C156.507 130.052 157.07 129.313 156.845 128.862C156.619 128.412 155.691 128.42 154.772 128.88C153.853 129.34 153.29 130.079 153.515 130.53C153.741 130.98 154.669 130.972 155.588 130.512Z" fill="#F8AB5D"/>
<path d="M161.859 134.78C162.779 134.32 163.342 133.581 163.116 133.13C162.891 132.68 161.963 132.688 161.044 133.148C160.124 133.608 159.562 134.347 159.787 134.798C160.012 135.248 160.94 135.241 161.859 134.78Z" fill="#F8AB5D"/>
<path d="M154.221 138.609C155.14 138.148 155.703 137.41 155.478 136.959C155.252 136.508 154.324 136.516 153.405 136.977C152.486 137.437 151.923 138.175 152.148 138.626C152.373 139.077 153.301 139.069 154.221 138.609Z" fill="#F8AB5D"/>
<path d="M122.729 103.248C123.648 102.788 124.211 102.049 123.985 101.598C123.76 101.148 122.832 101.156 121.913 101.616C120.993 102.076 120.431 102.815 120.656 103.266C120.881 103.716 121.809 103.708 122.729 103.248Z" fill="#F8AB5D"/>
<path d="M129 107.516C129.92 107.056 130.482 106.317 130.257 105.866C130.032 105.416 129.104 105.424 128.184 105.884C127.265 106.344 126.702 107.083 126.927 107.534C127.153 107.984 128.081 107.977 129 107.516Z" fill="#F8AB5D"/>
<path d="M115.094 107.082C116.013 106.622 116.576 105.883 116.351 105.432C116.125 104.982 115.197 104.99 114.278 105.45C113.359 105.91 112.796 106.649 113.021 107.1C113.247 107.55 114.174 107.542 115.094 107.082Z" fill="#F8AB5D"/>
<path d="M121.367 111.352C122.287 110.891 122.849 110.153 122.624 109.702C122.399 109.252 121.471 109.259 120.551 109.72C119.632 110.18 119.069 110.919 119.295 111.369C119.52 111.82 120.448 111.812 121.367 111.352Z" fill="#F8AB5D"/>
<path d="M128.506 114.81C129.425 114.35 129.988 113.611 129.763 113.161C129.537 112.71 128.609 112.718 127.69 113.178C126.771 113.639 126.208 114.377 126.433 114.828C126.659 115.279 127.587 115.271 128.506 114.81Z" fill="#F8AB5D"/>
<path d="M134.809 119.063C135.728 118.603 136.291 117.864 136.065 117.413C135.84 116.963 134.912 116.971 133.993 117.431C133.073 117.891 132.511 118.63 132.736 119.081C132.961 119.531 133.889 119.523 134.809 119.063Z" fill="#F8AB5D"/>
<path d="M120.873 118.642C121.793 118.182 122.355 117.443 122.13 116.993C121.905 116.542 120.977 116.55 120.057 117.01C119.138 117.471 118.575 118.209 118.801 118.66C119.026 119.111 119.954 119.103 120.873 118.642Z" fill="#F8AB5D"/>
<path d="M127.139 122.909C128.058 122.448 128.621 121.71 128.396 121.259C128.17 120.808 127.242 120.816 126.323 121.277C125.404 121.737 124.841 122.475 125.066 122.926C125.291 123.377 126.219 123.369 127.139 122.909Z" fill="#F8AB5D"/>
<path d="M107.428 110.931C108.347 110.471 108.91 109.732 108.685 109.281C108.459 108.831 107.531 108.839 106.612 109.299C105.693 109.759 105.13 110.498 105.355 110.949C105.581 111.399 106.508 111.391 107.428 110.931Z" fill="#F8AB5D"/>
<path d="M113.731 115.179C114.65 114.718 115.213 113.98 114.987 113.529C114.762 113.078 113.834 113.086 112.915 113.547C111.995 114.007 111.433 114.745 111.658 115.196C111.883 115.647 112.811 115.639 113.731 115.179Z" fill="#F8AB5D"/>
<path d="M99.7755 114.731C100.695 114.271 101.258 113.533 101.032 113.082C100.807 112.631 99.879 112.639 98.9596 113.099C98.0402 113.56 97.4776 114.298 97.7029 114.749C97.9282 115.2 98.8561 115.192 99.7755 114.731Z" fill="#F8AB5D"/>
<path d="M106.063 119.031C106.982 118.571 107.545 117.832 107.319 117.382C107.094 116.931 106.166 116.939 105.247 117.399C104.327 117.86 103.765 118.598 103.99 119.049C104.215 119.5 105.143 119.492 106.063 119.031Z" fill="#F8AB5D"/>
<path d="M113.203 122.49C114.123 122.03 114.685 121.291 114.46 120.84C114.235 120.39 113.307 120.397 112.387 120.858C111.468 121.318 110.905 122.057 111.131 122.507C111.356 122.958 112.284 122.95 113.203 122.49Z" fill="#F8AB5D"/>
<path d="M119.504 126.743C120.423 126.282 120.986 125.544 120.761 125.093C120.535 124.642 119.608 124.65 118.688 125.11C117.769 125.571 117.206 126.309 117.431 126.76C117.657 127.211 118.585 127.203 119.504 126.743Z" fill="#F8AB5D"/>
<path d="M105.551 126.287C106.47 125.826 107.033 125.088 106.808 124.637C106.582 124.186 105.654 124.194 104.735 124.654C103.816 125.115 103.253 125.853 103.478 126.304C103.704 126.755 104.632 126.747 105.551 126.287Z" fill="#F8AB5D"/>
<path d="M111.818 130.557C112.738 130.096 113.301 129.358 113.075 128.907C112.85 128.456 111.922 128.464 111.003 128.925C110.083 129.385 109.521 130.124 109.746 130.574C109.971 131.025 110.899 131.017 111.818 130.557Z" fill="#F8AB5D"/>
<path d="M126.805 130.503C127.724 130.042 128.287 129.304 128.062 128.853C127.836 128.402 126.908 128.41 125.989 128.87C125.07 129.331 124.507 130.069 124.732 130.52C124.957 130.971 125.885 130.963 126.805 130.503Z" fill="#F8AB5D"/>
<path d="M146.514 142.484C147.433 142.023 147.996 141.285 147.771 140.834C147.545 140.383 146.617 140.391 145.698 140.851C144.779 141.312 144.216 142.05 144.441 142.501C144.666 142.952 145.594 142.944 146.514 142.484Z" fill="#F8AB5D"/>
<path d="M132.559 142.033C133.478 141.573 134.041 140.834 133.815 140.383C133.59 139.933 132.662 139.941 131.743 140.401C130.823 140.861 130.261 141.6 130.486 142.051C130.711 142.501 131.639 142.493 132.559 142.033Z" fill="#F8AB5D"/>
<path d="M138.846 146.333C139.765 145.873 140.328 145.134 140.103 144.683C139.877 144.233 138.949 144.241 138.03 144.701C137.111 145.161 136.548 145.9 136.773 146.351C136.998 146.801 137.926 146.793 138.846 146.333Z" fill="#F8AB5D"/>
<path d="M119.119 134.32C120.039 133.86 120.601 133.121 120.376 132.671C120.151 132.22 119.223 132.228 118.303 132.688C117.384 133.148 116.821 133.887 117.047 134.338C117.272 134.788 118.2 134.781 119.119 134.32Z" fill="#F8AB5D"/>
<path d="M125.42 138.566C126.339 138.105 126.902 137.367 126.677 136.916C126.451 136.465 125.524 136.473 124.604 136.934C123.685 137.394 123.122 138.133 123.347 138.583C123.573 139.034 124.501 139.026 125.42 138.566Z" fill="#F8AB5D"/>
<path d="M111.481 138.152C112.4 137.692 112.963 136.953 112.737 136.502C112.512 136.052 111.584 136.06 110.665 136.52C109.745 136.98 109.183 137.719 109.408 138.17C109.633 138.62 110.561 138.612 111.481 138.152Z" fill="#F8AB5D"/>
<path d="M117.748 142.418C118.668 141.958 119.23 141.219 119.005 140.769C118.78 140.318 117.852 140.326 116.932 140.786C116.013 141.247 115.45 141.985 115.676 142.436C115.901 142.887 116.829 142.879 117.748 142.418Z" fill="#F8AB5D"/>
<path d="M124.893 145.877C125.812 145.416 126.375 144.678 126.149 144.227C125.924 143.777 124.996 143.784 124.077 144.245C123.157 144.705 122.595 145.444 122.82 145.894C123.045 146.345 123.973 146.337 124.893 145.877Z" fill="#F8AB5D"/>
<path d="M131.193 150.13C132.113 149.669 132.676 148.931 132.45 148.48C132.225 148.029 131.297 148.037 130.378 148.498C129.458 148.958 128.896 149.696 129.121 150.147C129.346 150.598 130.274 150.59 131.193 150.13Z" fill="#F8AB5D"/>
<path d="M117.254 149.713C118.173 149.252 118.736 148.514 118.511 148.063C118.285 147.612 117.358 147.62 116.438 148.08C115.519 148.541 114.956 149.279 115.181 149.73C115.407 150.181 116.335 150.173 117.254 149.713Z" fill="#F8AB5D"/>
<path d="M123.527 153.977C124.447 153.517 125.01 152.778 124.784 152.328C124.559 151.877 123.631 151.885 122.712 152.345C121.792 152.806 121.23 153.544 121.455 153.995C121.68 154.446 122.608 154.438 123.527 153.977Z" fill="#F8AB5D"/>
<path d="M133.112 123.91C137.337 124.802 141.635 125.298 145.952 125.393C146.233 125.4 146.502 125.508 146.711 125.696C146.92 125.884 147.055 126.14 147.092 126.419C147.301 127.955 147.977 129.388 149.029 130.526C149.127 130.626 149.205 130.745 149.257 130.875C149.309 131.006 149.335 131.145 149.333 131.286C149.371 132.883 149.447 138.282 148.383 139.118C147.167 140.031 134.251 140.867 126.236 138.624C125.981 138.559 125.754 138.412 125.589 138.206C125.425 138.001 125.332 137.747 125.324 137.483C125.362 135.924 125.438 132.655 125.704 130.602C125.741 130.397 125.826 130.205 125.951 130.04C126.077 129.875 126.239 129.742 126.426 129.651C127.679 129.081 130.567 127.56 131.592 124.708C131.715 124.42 131.933 124.183 132.21 124.038C132.487 123.892 132.805 123.847 133.112 123.91V123.91Z" stroke="#F8AB5D" stroke-width="1.16191" stroke-linecap="round" stroke-linejoin="round"/>
<path d="M136.227 90.6417C136.266 90.5554 136.325 90.4797 136.399 90.4208C136.473 90.3619 136.561 90.3215 136.653 90.303C136.746 90.2844 136.842 90.2882 136.933 90.314C137.024 90.3399 137.108 90.387 137.177 90.4516C137.899 91.212 139.456 92.3526 142.267 92.8849C146.56 93.6834 146.978 93.037 146.978 93.037C146.978 93.037 147.662 93.2651 147.738 93.8354C147.76 94.7575 147.658 95.6783 147.434 96.5729C147.206 97.2953 144.015 97.3714 141.47 96.8391C139.221 96.4265 137.145 95.3546 135.505 93.7594C135.376 93.6343 135.288 93.4722 135.254 93.2952C135.22 93.1183 135.241 92.9351 135.315 92.7709C135.543 92.2005 135.923 91.3641 136.227 90.6417Z" fill="#6DAFA7"/>
<path d="M154.955 76.5359C154.992 78.1656 154.735 79.7885 154.195 81.3265C153.435 83.3036 152.182 88.8166 149.713 90.6036C147.243 92.3906 141.849 92.0484 139.494 87.4479C137.138 82.8474 137.898 78.0187 139.114 74.1406C140.329 70.2625 145.344 68.8557 149.713 70.4526C154.081 72.0495 154.955 74.825 154.955 76.5359Z" fill="#F4C2C9"/>
<path d="M139 79.1974C139.259 79.5374 139.476 79.9077 139.646 80.3C139.988 81.0984 140.709 80.6422 140.975 79.1974C141.241 77.7526 141.849 76.726 142.305 76.8021C142.89 76.9422 143.506 76.8793 144.051 76.6238C144.596 76.3683 145.039 75.9352 145.306 75.3953C146.256 73.6464 146.674 73.9125 146.674 73.9125C146.674 73.9125 147.433 72.0875 149.409 74.7109C151.384 77.3344 152.638 79.3875 154.993 78.9693C157.348 78.551 159.438 74.7109 157.652 71.0229C155.867 67.3349 150.244 66.4604 146.066 67.563C141.887 68.6656 139.722 67.7531 137.215 69.8823C134.707 72.0115 135.315 74.2547 135.163 76.7641C135.011 79.2734 133.72 80.6042 135.429 82.8474C137.139 85.0906 136.683 87.1818 137.632 88.4365C137.632 88.4365 138.658 85.1286 138.544 82.7333C138.43 80.338 139 79.1974 139 79.1974Z" fill="#22272E"/>
<path d="M150.281 81.2885C150.254 82.2444 149.86 83.1531 149.181 83.8257C148.502 84.4984 147.59 84.8833 146.635 84.9005C146.159 84.8967 145.689 84.7976 145.252 84.609C144.815 84.4204 144.42 84.1462 144.091 83.8024C143.762 83.4587 143.504 83.0524 143.334 82.6076C143.165 82.1628 143.085 81.6884 143.102 81.2125C143.099 80.7205 143.193 80.2328 143.378 79.7773C143.564 79.3217 143.837 78.9073 144.183 78.5576C144.529 78.208 144.94 77.9301 145.393 77.7397C145.847 77.5494 146.333 77.4504 146.825 77.4484C147.305 77.4677 147.777 77.5831 148.213 77.7876C148.649 77.9922 149.039 78.282 149.361 78.6398C149.683 78.9976 149.931 79.4162 150.089 79.8711C150.247 80.326 150.312 80.8079 150.281 81.2885V81.2885Z" stroke="#22272E" stroke-width="1.16191" stroke-linecap="round" stroke-linejoin="round"/>
<path d="M156.142 83.5403C156.67 81.7259 156.069 79.9551 154.8 79.5851C153.531 79.2151 152.074 80.3861 151.546 82.2006C151.018 84.015 151.619 85.7858 152.888 86.1558C154.157 86.5257 155.613 85.3548 156.142 83.5403Z" stroke="#22272E" stroke-width="1.16191" stroke-linecap="round" stroke-linejoin="round"/>
<path d="M151.612 82.087C151.612 82.087 151.574 81.3266 150.244 81.7448" stroke="#22272E" stroke-width="1.16191" stroke-linecap="round" stroke-linejoin="round"/>
<path d="M143.407 79.6537L139 78.8552" stroke="#22272E" stroke-width="1.16191" stroke-linecap="round" stroke-linejoin="round"/>
<path d="M139.378 79.8818C139.378 79.8818 139.036 77.8667 137.403 77.8286C135.769 77.7906 134.782 82.8094 138.846 83.4938" fill="#F4C2C9"/>
<path d="M137.137 79.3875C137.326 79.339 137.526 79.3494 137.709 79.4174C137.892 79.4853 138.05 79.6075 138.162 79.7677C138.27 79.9656 138.323 80.1889 138.314 80.4141C138.314 80.5282 138.276 80.6042 138.276 80.7183C138.276 80.8323 138.238 80.8703 138.238 80.9464C138.209 81.0708 138.196 81.1987 138.2 81.3266C138.192 81.3738 138.195 81.4223 138.208 81.4683C138.221 81.5144 138.245 81.5569 138.276 81.5927C138.481 81.8147 138.726 81.9954 138.998 82.125C138.818 82.19 138.625 82.2136 138.434 82.1938C138.244 82.1741 138.06 82.1116 137.896 82.011C137.714 81.8714 137.592 81.6674 137.555 81.4406C137.528 81.2373 137.541 81.0308 137.593 80.8323C137.631 80.7563 137.631 80.6422 137.669 80.5662C137.707 80.4901 137.707 80.4521 137.707 80.3761C137.745 80.2783 137.745 80.1697 137.707 80.0719C137.665 79.9239 137.593 79.7864 137.495 79.6684C137.397 79.5504 137.275 79.4547 137.137 79.3875Z" fill="#22272E"/>
<path d="M151.079 81.4787C151.105 81.9078 151.195 82.3307 151.345 82.7334C151.411 82.9096 151.5 83.0759 151.611 83.2277C151.771 83.4157 151.887 83.6363 151.953 83.874C152.014 84.1284 152.018 84.393 151.966 84.6492C151.913 84.9054 151.805 85.147 151.649 85.3568C151.511 85.5589 151.329 85.7277 151.117 85.8511C150.917 85.9882 150.676 86.0551 150.434 86.0412C150.77 85.7937 151.022 85.4485 151.155 85.0527C151.303 84.7318 151.343 84.3716 151.269 84.0261C151.202 83.8505 151.113 83.6844 151.003 83.5318C150.888 83.3054 150.811 83.0613 150.775 82.8094C150.758 82.3469 150.863 81.8879 151.079 81.4787Z" fill="#22272E"/>
<path d="M147.281 87.5239C146.749 87.5045 146.233 87.3378 145.791 87.0425C145.348 86.7471 144.996 86.3347 144.773 85.851" stroke="#22272E" stroke-width="1.16191" stroke-linecap="round" stroke-linejoin="round"/>
<path d="M145.723 82.0109C145.651 81.9935 145.582 81.962 145.522 81.9182C145.462 81.8743 145.411 81.819 145.372 81.7555C145.333 81.6919 145.307 81.6213 145.296 81.5477C145.284 81.4741 145.287 81.3989 145.305 81.3265L145.457 80.7562C145.474 80.6838 145.506 80.6155 145.55 80.5552C145.593 80.495 145.649 80.444 145.712 80.4051C145.776 80.3663 145.846 80.3404 145.92 80.3288C145.993 80.3173 146.068 80.3204 146.141 80.338C146.213 80.3554 146.281 80.3869 146.342 80.4307C146.402 80.4746 146.453 80.5299 146.492 80.5934C146.53 80.657 146.556 80.7276 146.568 80.8012C146.579 80.8748 146.576 80.95 146.559 81.0224L146.407 81.5927C146.389 81.6651 146.358 81.7334 146.314 81.7937C146.27 81.8539 146.215 81.9049 146.151 81.9437C146.088 81.9826 146.017 82.0085 145.944 82.02C145.87 82.0316 145.795 82.0285 145.723 82.0109Z" fill="#22272E"/>
<path d="M151.764 83.5698C151.692 83.5524 151.623 83.5209 151.563 83.4771C151.503 83.4332 151.452 83.3779 151.413 83.3144C151.374 83.2508 151.348 83.1802 151.337 83.1066C151.325 83.033 151.328 82.9578 151.346 82.8854L151.498 82.3151C151.515 82.2427 151.547 82.1744 151.591 82.1141C151.634 82.0539 151.69 82.0029 151.753 81.964C151.817 81.9252 151.887 81.8993 151.961 81.8877C152.034 81.8762 152.109 81.8793 152.182 81.8969C152.254 81.9143 152.322 81.9458 152.383 81.9896C152.443 82.0335 152.494 82.0887 152.533 82.1523C152.571 82.2159 152.597 82.2865 152.609 82.3601C152.62 82.4337 152.617 82.5089 152.6 82.5813L152.448 83.1516C152.43 83.224 152.399 83.2923 152.355 83.3526C152.311 83.4128 152.256 83.4638 152.192 83.5026C152.129 83.5415 152.058 83.5674 151.985 83.5789C151.911 83.5905 151.836 83.5874 151.764 83.5698Z" fill="#22272E"/>
<path d="M147.243 79.3875C146.825 79.4636 146.636 78.8933 146.028 78.9313C145.078 78.9693 144.546 79.1594 144.47 78.7412C144.432 78.437 145.154 77.8667 146.066 77.8287C147.395 77.8287 148.003 79.2735 147.243 79.3875Z" fill="#22272E"/>
<path d="M151.763 80.5281C152.029 80.7562 152.408 80.338 152.788 80.6041C153.358 80.9463 153.548 81.2505 153.738 80.9843C153.928 80.7182 153.738 80.0718 153.206 79.7297C152.332 79.1213 151.193 80.1099 151.763 80.5281Z" fill="#22272E"/>
<path d="M103.897 144.099C103.642 144.639 103.475 145.217 103.404 145.81C103.404 146.456 103.935 152.426 103.784 153.604C103.632 154.783 103.252 157.102 103.024 157.444C102.796 157.787 101.428 156.722 101.39 153.148C101.352 149.574 100.137 144.669 101.162 144.099C102.188 143.529 103.594 143.643 103.897 144.099Z" fill="#F4C2C9"/>
<path d="M79.0148 161.741L88.1319 147.369C88.2329 147.21 88.3645 147.073 88.519 146.966C88.6735 146.858 88.8479 146.783 89.0318 146.744C89.2158 146.705 89.4057 146.703 89.5904 146.739C89.775 146.774 89.9508 146.846 90.1073 146.951L111.571 160.6C111.729 160.701 111.866 160.833 111.973 160.987C112.081 161.142 112.156 161.317 112.195 161.501C112.234 161.685 112.236 161.875 112.2 162.06C112.165 162.245 112.093 162.42 111.989 162.577L102.871 176.949C102.77 177.108 102.639 177.245 102.484 177.352C102.33 177.459 102.155 177.535 101.972 177.574C101.788 177.613 101.598 177.614 101.413 177.579C101.228 177.543 101.053 177.471 100.896 177.367L79.4326 163.718C79.1194 163.508 78.9004 163.183 78.8224 162.814C78.7443 162.445 78.8133 162.06 79.0148 161.741Z" fill="#22272E"/>
<path d="M104.203 172.729L108.761 165.581C108.808 165.504 108.874 165.44 108.952 165.395C109.029 165.349 109.117 165.323 109.207 165.32C109.297 165.316 109.386 165.334 109.468 165.373C109.549 165.412 109.619 165.47 109.673 165.543L110.395 166.493C110.466 166.584 110.507 166.695 110.514 166.81C110.521 166.926 110.492 167.041 110.433 167.14L106.33 173.603C106.275 173.7 106.189 173.776 106.085 173.818C105.981 173.859 105.867 173.864 105.76 173.831L104.582 173.603C104.494 173.58 104.412 173.536 104.342 173.476C104.273 173.417 104.218 173.342 104.181 173.258C104.145 173.174 104.128 173.082 104.131 172.991C104.135 172.899 104.159 172.81 104.203 172.729Z" fill="#6DAFA7"/>
<path d="M102.873 143.719C102.873 143.719 102.645 150.334 102.607 151.741C102.569 153.148 102.645 155.923 102.303 157.254C101.961 158.585 101.391 161.931 100.366 162.159C99.3401 162.387 100.442 158.053 100.442 157.216C100.358 156.256 100.206 155.303 99.9859 154.365C99.9859 154.365 99.606 156.456 99.3401 157.368C99.0742 158.281 97.3267 161.132 96.6429 161.018C95.9591 160.904 96.7949 158.775 97.3267 157.482C97.8206 156.304 98.0105 153.832 98.0105 153.832C97.7143 154.588 97.3717 155.324 96.9848 156.037C96.529 156.798 94.9715 159.155 94.3257 159.041C93.6799 158.927 94.7435 156.532 95.3893 155.429C95.7551 154.854 95.9886 154.205 96.0731 153.528C96.0731 153.528 95.0474 154.555 94.4016 155.049C93.7558 155.543 91.4765 156.646 91.2866 156.075C91.0966 155.505 92.1223 154.897 93.072 154.022C94.0217 153.148 95.0474 151.399 95.2754 151.095C95.5033 150.791 94.8575 148.129 95.8832 146.342C96.9089 144.555 97.5167 143.833 97.7826 142.616C98.0485 141.399 102.759 142.844 102.873 143.719Z" fill="#F4C2C9"/>
<path d="M126.615 92.3146C126.615 92.3146 122.285 91.8964 117.08 98.4359C111.876 104.976 106.747 110.451 105.304 113.036C103.86 115.621 100.669 125.317 99.0737 132.959C97.4782 140.601 97.3262 141.97 97.3642 142.806C97.4022 143.567 101.239 144.631 103.746 144.593C103.967 144.598 104.183 144.534 104.366 144.412C104.55 144.29 104.691 144.114 104.772 143.909C105.76 141.59 109.217 133.681 110.584 130.792C112.18 127.408 114.041 122.389 114.269 122.047C114.497 121.705 124.868 111.135 126.805 108.359C128.743 105.584 130.604 101.097 130.186 97.1432C129.73 92.8469 127.527 92.2766 126.615 92.3146Z" fill="#6DAFA7"/>
<path d="M105.835 112.161C105.835 112.161 107.013 110.527 108.495 112.009C110.052 113.568 109.368 116.952 107.203 119.081C105.418 120.83 102.872 120.108 103.1 118.473" stroke="#22272E" stroke-width="1.16191" stroke-linecap="round" stroke-linejoin="round"/>
<path d="M97.8965 140.981C98.9222 141.476 101.999 142.844 105 142.464" stroke="#22272E" stroke-width="1.16191" stroke-linecap="round" stroke-linejoin="round"/>
<path d="M197.35 151.779L203.732 130.868C203.825 130.589 204.004 130.347 204.242 130.176C204.481 130.006 204.768 129.915 205.061 129.917L242.822 130.982C242.969 130.983 243.113 131.019 243.244 131.085C243.375 131.152 243.489 131.247 243.578 131.365C243.666 131.483 243.726 131.619 243.753 131.763C243.78 131.908 243.773 132.057 243.733 132.198L236.326 157.71C236.236 158.022 236.037 158.29 235.764 158.465C235.491 158.64 235.164 158.71 234.844 158.661L198.186 152.996C198.043 152.988 197.905 152.948 197.78 152.878C197.656 152.808 197.549 152.711 197.468 152.593C197.388 152.476 197.335 152.341 197.314 152.2C197.294 152.059 197.306 151.915 197.35 151.779Z" fill="#22272E"/>
<path d="M197.008 152.844L175.051 154.897L212.697 164.174C213.607 164.403 214.56 164.403 215.47 164.174L235.908 158.889L197.008 152.844Z" fill="#63737A"/>
<path d="M212.734 164.174L175.088 154.897C175.09 155.245 175.207 155.582 175.42 155.857C175.633 156.131 175.93 156.328 176.266 156.418L211.747 165.847C213.244 166.24 214.821 166.214 216.305 165.771L234.919 160.296C235.231 160.206 235.504 160.016 235.697 159.755C235.889 159.493 235.99 159.176 235.983 158.851L215.545 164.136C214.628 164.395 213.658 164.408 212.734 164.174Z" fill="#22272E"/>
<path d="M222.155 134.556L219.496 143.605C219.457 143.715 219.385 143.811 219.29 143.879C219.194 143.947 219.081 143.984 218.964 143.985L204.034 142.692C203.959 142.686 203.886 142.664 203.82 142.627C203.755 142.59 203.698 142.538 203.654 142.476C203.611 142.415 203.581 142.344 203.568 142.27C203.555 142.195 203.559 142.119 203.578 142.046L206.086 133.757C206.117 133.649 206.181 133.554 206.27 133.486C206.359 133.417 206.467 133.379 206.58 133.377L221.661 133.909C221.739 133.912 221.815 133.931 221.884 133.967C221.954 134.003 222.014 134.053 222.061 134.115C222.109 134.177 222.141 134.249 222.158 134.325C222.174 134.401 222.173 134.48 222.155 134.556Z" fill="white"/>
<path d="M219.306 136.191L217.634 141.628L206.01 140.791L206.428 139.574L210.72 137.673L213.152 139.574L219.306 136.191Z" fill="#F4C2C9"/>
<path d="M210.608 147.293L209.506 150.715C209.467 150.83 209.388 150.928 209.284 150.991C209.18 151.053 209.056 151.077 208.936 151.057L201.757 150.106C201.683 150.099 201.612 150.076 201.548 150.037C201.485 149.999 201.431 149.947 201.391 149.884C201.351 149.822 201.325 149.752 201.316 149.678C201.307 149.605 201.315 149.53 201.339 149.46L202.288 146.266C202.327 146.156 202.399 146.06 202.494 145.992C202.59 145.924 202.703 145.887 202.82 145.886L210.152 146.646C210.23 146.643 210.308 146.66 210.379 146.695C210.449 146.729 210.51 146.781 210.555 146.846C210.601 146.91 210.629 146.984 210.638 147.062C210.648 147.141 210.637 147.22 210.608 147.293Z" fill="#FFE779"/>
<path d="M221.851 148.433L220.636 152.197C220.597 152.313 220.518 152.411 220.414 152.473C220.309 152.536 220.186 152.56 220.066 152.54L213.228 151.627C213.152 151.617 213.078 151.591 213.014 151.549C212.949 151.507 212.895 151.451 212.855 151.386C212.814 151.32 212.79 151.246 212.782 151.169C212.774 151.093 212.784 151.015 212.81 150.943L213.95 147.407C213.984 147.297 214.057 147.202 214.154 147.139C214.251 147.077 214.367 147.05 214.482 147.065L221.395 147.749C221.475 147.753 221.553 147.776 221.622 147.816C221.691 147.855 221.75 147.91 221.795 147.977C221.839 148.043 221.867 148.119 221.877 148.198C221.887 148.278 221.878 148.358 221.851 148.433Z" fill="#6DAFA7"/>
<path d="M234.768 149.726L233.477 153.908C233.438 154.024 233.359 154.122 233.255 154.184C233.15 154.247 233.027 154.27 232.907 154.251L224.663 153.148C224.587 153.138 224.514 153.112 224.449 153.07C224.385 153.028 224.33 152.972 224.29 152.906C224.25 152.841 224.225 152.767 224.217 152.69C224.21 152.613 224.219 152.536 224.246 152.464L225.499 148.547C225.534 148.437 225.606 148.342 225.703 148.28C225.8 148.217 225.916 148.191 226.031 148.205L234.275 149.042C234.356 149.043 234.437 149.064 234.509 149.102C234.581 149.14 234.644 149.194 234.692 149.261C234.74 149.327 234.772 149.404 234.785 149.484C234.798 149.565 234.793 149.648 234.768 149.726Z" fill="#F4C2C9"/>
<path d="M230.323 136.381C230.173 136.948 229.837 137.448 229.368 137.8C228.899 138.152 228.326 138.335 227.74 138.32C226.638 138.244 226.068 137.293 226.372 136.229C226.54 135.721 226.86 135.278 227.288 134.958C227.716 134.638 228.232 134.458 228.765 134.442C229.007 134.432 229.247 134.479 229.467 134.579C229.688 134.679 229.881 134.83 230.033 135.018C230.184 135.207 230.289 135.428 230.34 135.665C230.39 135.902 230.384 136.147 230.323 136.381Z" fill="#FFE779"/>
<path d="M233.02 135.126L238.566 135.316" stroke="#63737A" stroke-width="1.16191" stroke-linecap="round" stroke-linejoin="round"/>
<path d="M224.359 142.35L236.25 143.186" stroke="#63737A" stroke-width="1.16191" stroke-linecap="round" stroke-linejoin="round"/>
<path d="M232.375 137.369L237.921 137.597" stroke="#63737A" stroke-width="1.16191" stroke-linecap="round" stroke-linejoin="round"/>
<path d="M262.804 80.5661L233.933 82.8094C233.76 82.8206 233.587 82.7948 233.426 82.7338C233.264 82.6728 233.117 82.5779 232.995 82.4556C232.872 82.3332 232.778 82.1862 232.717 82.0243C232.656 81.8624 232.63 81.6893 232.641 81.5167L233.857 64.8255C233.891 64.3416 234.091 63.8843 234.424 63.531C234.756 63.1777 235.2 62.95 235.68 62.8865L265.007 58.8943C265.186 58.872 265.367 58.8895 265.538 58.9455C265.708 59.0014 265.865 59.0945 265.995 59.2181C266.126 59.3416 266.228 59.4925 266.293 59.66C266.359 59.8275 266.387 60.0075 266.375 60.187L264.741 78.6651C264.686 79.1568 264.464 79.6145 264.111 79.9609C263.758 80.3072 263.296 80.521 262.804 80.5661Z" fill="#6DAFA7"/>
<path d="M261.853 79.9578L232.982 82.201C232.809 82.2122 232.636 82.1864 232.474 82.1254C232.313 82.0644 232.166 81.9696 232.044 81.8472C231.921 81.7249 231.827 81.5778 231.766 81.4159C231.705 81.254 231.679 81.081 231.69 80.9083L232.906 64.2172C232.94 63.7332 233.14 63.276 233.472 62.9227C233.805 62.5694 234.249 62.3417 234.729 62.2781L264.056 58.2859C264.234 58.2637 264.416 58.2812 264.586 58.3371C264.757 58.3931 264.914 58.4862 265.044 58.6097C265.175 58.7333 265.277 58.8842 265.342 59.0517C265.408 59.2192 265.436 59.3991 265.424 59.5786L263.79 78.0568C263.748 78.5534 263.53 79.0185 263.174 79.3674C262.819 79.7163 262.35 79.9258 261.853 79.9578Z" fill="#B0D7C0"/>
<path d="M242.631 68.7797C242.578 69.3477 242.335 69.8813 241.943 70.2949C241.55 70.7086 241.03 70.9783 240.466 71.0609C240.219 71.0934 239.968 71.0685 239.732 70.9882C239.496 70.908 239.281 70.7745 239.105 70.5981C238.929 70.4217 238.796 70.2072 238.715 69.971C238.635 69.7348 238.61 69.4833 238.643 69.236C238.688 68.6712 238.923 68.1383 239.309 67.7241C239.695 67.3099 240.21 67.0387 240.77 66.9547C241.91 66.8026 242.707 67.6391 242.631 68.7797Z" fill="#22272E"/>
<path d="M242.06 76.0416L238.11 76.4218C237.911 76.4432 237.711 76.4192 237.524 76.3517C237.336 76.2841 237.166 76.1748 237.027 76.0319C236.888 75.8891 236.783 75.7165 236.721 75.5271C236.658 75.3378 236.639 75.1367 236.666 74.939C236.764 73.9309 237.194 72.9839 237.888 72.2473C238.583 71.5107 239.503 71.0265 240.503 70.8708C242.478 70.6427 243.998 72.1635 243.808 74.2547C243.759 74.7057 243.561 75.1273 243.244 75.4515C242.927 75.7757 242.51 75.9836 242.06 76.0416Z" fill="#22272E"/>
<path d="M247.305 66.7266L259.613 65.2818" stroke="#63737A" stroke-width="1.16191" stroke-linecap="round" stroke-linejoin="round"/>
<path d="M247 70.1104L259.308 68.7797" stroke="#63737A" stroke-width="1.16191" stroke-linecap="round" stroke-linejoin="round"/>
<path d="M246.734 73.4942L254.142 72.7719" stroke="#63737A" stroke-width="1.16191" stroke-linecap="round" stroke-linejoin="round"/>
<path d="M230.057 50.9099C228.575 49.4271 226.486 48.5526 223.902 48.2484C222.188 47.9952 220.436 48.2325 218.85 48.9328C217.027 49.7312 215.659 51.138 214.633 53.1911L212.924 53.9135L213.912 54.9401L218.356 55.7385C218.662 54.776 219.197 53.902 219.914 53.1911C220.673 52.4307 221.699 52.1265 222.991 52.3166C224.282 52.5067 225.156 53.001 225.498 53.7995C225.84 54.6075 225.88 55.5115 225.612 56.3468C225.381 57.1277 224.933 57.8267 224.32 58.362C223.935 58.7054 223.5 58.9875 223.029 59.1984L221.509 59.9588C220.028 60.6812 219.04 61.3656 218.546 62.05C218.056 62.8102 217.661 63.6273 217.368 64.4833L215.849 64.9776L216.837 66.0041L221.395 67.2588C221.571 66.5249 221.852 65.8204 222.231 65.1677C222.688 64.4552 223.35 63.8984 224.13 63.5708L225.688 62.8484C226.906 62.3366 228.055 61.6722 229.107 60.8713C230.275 59.8767 231.088 58.5289 231.424 57.0312C232.07 54.5219 231.614 52.4687 230.057 50.9099Z" fill="#F8AB5D"/>
<path d="M218.433 68.7417L218.281 68.7037C217.952 68.619 217.609 68.6012 217.272 68.6514C216.936 68.7016 216.613 68.8188 216.323 68.996C216.032 69.1732 215.78 69.4069 215.582 69.6832C215.383 69.9595 215.242 70.2729 215.166 70.6047C214.952 71.2761 215.002 72.0038 215.305 72.6397C215.609 73.2755 216.143 73.7715 216.8 74.0266L216.952 74.1027C218.319 74.5589 219.763 73.7224 220.181 72.2016C220.598 70.6808 219.801 69.1219 218.433 68.7417Z" fill="#F8AB5D"/>
<path d="M217.9 47.9062C219.496 47.2426 221.238 47.0067 222.953 47.2219C225.536 47.526 227.587 48.4005 229.107 49.8833C230.626 51.3661 231.12 53.4953 230.436 56.0807C230.091 57.5744 229.279 58.9194 228.119 59.9208C227.473 60.4911 226.334 61.1375 224.7 61.8979L223.143 62.6203C222.363 62.9479 221.7 63.5047 221.243 64.2172C220.888 64.881 220.608 65.5824 220.408 66.3083L215.849 65.0536C216.495 63.0765 217.027 61.7838 217.558 61.0995C218.09 60.4151 219.04 59.7307 220.521 59.0083L222.041 58.2479C222.509 58.0321 222.944 57.7504 223.333 57.4114C223.966 56.8938 224.418 56.1881 224.624 55.3963C224.855 54.5564 224.815 53.6649 224.51 52.8489C224.206 52.0505 223.333 51.5562 222.003 51.3661C220.673 51.176 219.686 51.4802 218.926 52.2406C218.194 52.9392 217.657 53.8174 217.368 54.788L212.924 53.9896C213.987 50.9099 215.583 48.9328 217.9 47.9062ZM217.406 68.1333L217.558 68.1713C218.237 68.4027 218.799 68.8892 219.125 69.5279C219.451 70.1667 219.516 70.9074 219.306 71.5932C218.888 73.114 217.406 73.9505 216.077 73.4943L215.925 73.4182C215.269 73.1631 214.734 72.6671 214.431 72.0313C214.127 71.3954 214.077 70.6677 214.291 69.9963C214.458 69.3361 214.88 68.7692 215.464 68.4199C216.048 68.0706 216.747 67.9675 217.406 68.1333Z" fill="#FFE779"/>
<path d="M114.534 71.3651H129.122L130.603 72.3156C130.712 72.3857 130.837 72.4251 130.966 72.4296C131.095 72.434 131.223 72.4035 131.336 72.3411C131.449 72.2787 131.543 72.1868 131.608 72.0752C131.673 71.9636 131.706 71.8364 131.705 71.7073V61.4036C131.705 60.8994 131.505 60.4159 131.149 60.0594C130.792 59.7029 130.309 59.5026 129.805 59.5026H114.534C114.03 59.5026 113.547 59.7029 113.191 60.0594C112.835 60.4159 112.635 60.8994 112.635 61.4036V69.464C112.635 69.9682 112.835 70.4518 113.191 70.8083C113.547 71.1648 114.03 71.3651 114.534 71.3651Z" fill="#F4C2C9"/>
<path d="M126.995 62.8864H117.27" stroke="#22272E" stroke-width="1.16191" stroke-linecap="round" stroke-linejoin="round"/>
<path d="M126.995 65.5479H117.27" stroke="#22272E" stroke-width="1.16191" stroke-linecap="round" stroke-linejoin="round"/>
<path d="M126.994 68.2094H121.41" stroke="#22272E" stroke-width="1.16191" stroke-linecap="round" stroke-linejoin="round"/>
</svg>
