<svg width="388" height="290" viewBox="0 0 388 290" fill="none" xmlns="http://www.w3.org/2000/svg">
<g clip-path="url(#clip0_249_2690)">
<path d="M290.356 215.272L93.325 209.646C88.8949 209.523 84.6616 207.795 81.4183 204.785C78.1749 201.776 76.1439 197.691 75.7059 193.296L66.1953 99.6497C65.9421 97.1431 66.2141 94.6113 66.994 92.2149C67.7739 89.8184 69.0448 87.6095 70.7261 85.7281C72.4074 83.8467 74.4625 82.3338 76.7611 81.2852C79.0598 80.2367 81.552 79.6753 84.0797 79.6367L303.391 76.6159C305.999 76.5808 308.584 77.1026 310.973 78.1463C313.361 79.19 315.498 80.7314 317.239 82.6668C318.98 84.6022 320.285 86.8867 321.066 89.3667C321.847 91.8466 322.086 94.4645 321.768 97.0443L308.998 199.337C308.436 203.828 306.214 207.949 302.767 210.895C299.32 213.841 294.896 215.402 290.356 215.272Z" fill="#EAF9F3"/>
<path d="M261.977 240.685H419.412C420.919 240.685 422.365 240.088 423.431 239.026C424.497 237.964 425.096 236.523 425.096 235.021V146.057C425.096 144.555 424.497 143.114 423.431 142.052C422.365 140.99 420.919 140.393 419.412 140.393H261.977C260.469 140.393 259.024 140.99 257.958 142.052C256.892 143.114 256.293 144.555 256.293 146.057V235.021C256.293 236.523 256.892 237.964 257.958 239.026C259.024 240.088 260.469 240.685 261.977 240.685Z" stroke="#C0C0C0" stroke-width="1.4168" stroke-linecap="round" stroke-linejoin="round"/>
<path d="M53.918 234.719H212.718C214.225 234.719 215.671 234.122 216.736 233.06C217.802 231.998 218.401 230.557 218.401 229.055V99.0456C218.401 97.5434 217.802 96.1027 216.736 95.0405C215.671 93.9783 214.225 93.3816 212.718 93.3816H53.918C52.4106 93.3816 50.9649 93.9783 49.8991 95.0405C48.8332 96.1027 48.2344 97.5434 48.2344 99.0456V229.055C48.2344 230.557 48.8332 231.998 49.8991 233.06C50.9649 234.122 52.4106 234.719 53.918 234.719V234.719Z" stroke="#C0C0C0" stroke-width="1.4168" stroke-linecap="round" stroke-linejoin="round"/>
<path d="M299.753 113.81H333.816V110.449H299.753C299.663 110.449 299.574 110.466 299.491 110.5C299.408 110.534 299.333 110.584 299.269 110.647C299.206 110.71 299.155 110.786 299.121 110.868C299.087 110.951 299.07 111.04 299.07 111.129V113.092C299.063 113.185 299.075 113.279 299.106 113.367C299.137 113.455 299.187 113.535 299.251 113.603C299.315 113.67 299.393 113.724 299.48 113.759C299.566 113.795 299.659 113.812 299.753 113.81V113.81Z" stroke="#C0C0C0" stroke-width="1.4168" stroke-linecap="round" stroke-linejoin="round"/>
<path d="M305.928 110.449H313.62C314.021 110.45 314.408 110.305 314.708 110.04C315.009 109.776 315.201 109.411 315.25 109.014L315.856 103.577C315.881 103.349 315.857 103.118 315.787 102.899C315.716 102.681 315.601 102.479 315.447 102.308C315.293 102.137 315.105 102.001 314.895 101.907C314.685 101.813 314.457 101.765 314.226 101.764H305.322C305.092 101.765 304.865 101.814 304.655 101.908C304.445 102.002 304.257 102.139 304.103 102.31C303.95 102.481 303.834 102.682 303.763 102.9C303.692 103.118 303.668 103.349 303.693 103.577L304.299 109.014C304.342 109.413 304.533 109.782 304.834 110.047C305.136 110.313 305.526 110.456 305.928 110.449V110.449Z" stroke="#C0C0C0" stroke-width="1.4168" stroke-linecap="round" stroke-linejoin="round"/>
<path d="M310.666 101.802C310.666 101.802 313.697 101.5 314.303 97.4219C314.303 97.4219 311.575 98.2149 310.704 100.141C310.704 100.141 310.325 95.836 308.279 95.4206C308.279 95.4206 307.369 98.6302 308.809 100.216C308.809 100.216 307.71 98.4037 304.906 98.4414C305.171 99.2367 305.627 99.9553 306.235 100.534C306.843 101.114 307.583 101.536 308.392 101.764" fill="#C0C0C0"/>
<path d="M263.189 159.16H297.366C297.787 159.157 298.191 158.989 298.488 158.692C298.786 158.396 298.955 157.994 298.958 157.574V147.228C298.955 146.808 298.786 146.407 298.488 146.11C298.191 145.813 297.787 145.645 297.366 145.642H263.189C262.768 145.645 262.365 145.813 262.067 146.11C261.769 146.407 261.601 146.808 261.598 147.228V157.574C261.601 157.994 261.769 158.396 262.067 158.692C262.365 158.989 262.768 159.157 263.189 159.16V159.16Z" stroke="#C0C0C0" stroke-width="1.4168" stroke-linecap="round" stroke-linejoin="round"/>
<path d="M276.336 149.267H284.217C284.367 149.263 284.509 149.202 284.615 149.097C284.721 148.991 284.782 148.85 284.786 148.701C284.782 148.552 284.721 148.41 284.615 148.304C284.509 148.199 284.367 148.138 284.217 148.134H276.336C276.187 148.138 276.044 148.199 275.938 148.304C275.833 148.41 275.772 148.552 275.768 148.701C275.766 148.775 275.78 148.85 275.808 148.919C275.836 148.989 275.878 149.052 275.931 149.104C275.984 149.157 276.047 149.199 276.117 149.227C276.186 149.255 276.261 149.268 276.336 149.267Z" fill="#C0C0C0"/>
<path d="M263.187 176.454H297.365C297.786 176.451 298.189 176.283 298.487 175.987C298.784 175.69 298.953 175.288 298.956 174.869V164.522C298.953 164.102 298.784 163.701 298.487 163.404C298.189 163.107 297.786 162.939 297.365 162.936H263.187C262.766 162.939 262.363 163.107 262.065 163.404C261.767 163.701 261.599 164.102 261.596 164.522V174.831C261.593 175.042 261.632 175.251 261.711 175.446C261.79 175.642 261.906 175.82 262.054 175.971C262.202 176.122 262.378 176.242 262.572 176.325C262.767 176.408 262.976 176.452 263.187 176.454Z" stroke="#C0C0C0" stroke-width="1.4168" stroke-linecap="round" stroke-linejoin="round"/>
<path d="M276.336 166.561H284.217C284.367 166.557 284.509 166.496 284.615 166.391C284.721 166.286 284.782 166.144 284.786 165.995C284.782 165.846 284.721 165.704 284.615 165.599C284.509 165.493 284.367 165.432 284.217 165.428H276.336C276.187 165.432 276.044 165.493 275.938 165.599C275.833 165.704 275.772 165.846 275.768 165.995C275.766 166.07 275.78 166.144 275.808 166.213C275.836 166.283 275.878 166.346 275.931 166.399C275.984 166.452 276.047 166.493 276.117 166.521C276.186 166.549 276.261 166.563 276.336 166.561Z" fill="#C0C0C0"/>
<path d="M87.6793 188.651H121.857C122.278 188.648 122.681 188.48 122.979 188.183C123.276 187.886 123.445 187.485 123.448 187.065V176.719C123.445 176.299 123.276 175.897 122.979 175.601C122.681 175.304 122.278 175.136 121.857 175.133H87.6793C87.2581 175.136 86.8551 175.304 86.5573 175.601C86.2595 175.897 86.0909 176.299 86.0879 176.719V187.065C86.0909 187.485 86.2595 187.886 86.5573 188.183C86.8551 188.48 87.2581 188.648 87.6793 188.651V188.651Z" stroke="#C0C0C0" stroke-width="1.4168" stroke-linecap="round" stroke-linejoin="round"/>
<path d="M100.865 178.796H108.747C108.896 178.792 109.038 178.731 109.144 178.625C109.25 178.52 109.311 178.378 109.315 178.229C109.311 178.08 109.25 177.938 109.144 177.833C109.038 177.728 108.896 177.667 108.747 177.663H100.865C100.716 177.667 100.573 177.728 100.468 177.833C100.362 177.938 100.301 178.08 100.297 178.229C100.295 178.304 100.309 178.378 100.337 178.448C100.365 178.517 100.407 178.58 100.46 178.633C100.513 178.686 100.576 178.728 100.646 178.756C100.716 178.784 100.79 178.797 100.865 178.796Z" fill="#C0C0C0"/>
<path d="M131.556 188.651H165.734C166.155 188.648 166.558 188.48 166.856 188.183C167.153 187.886 167.322 187.485 167.325 187.065V176.719C167.322 176.299 167.153 175.897 166.856 175.601C166.558 175.304 166.155 175.136 165.734 175.133H131.556C131.135 175.136 130.732 175.304 130.434 175.601C130.136 175.897 129.968 176.299 129.965 176.719V187.065C129.968 187.485 130.136 187.886 130.434 188.183C130.732 188.48 131.135 188.648 131.556 188.651V188.651Z" stroke="#C0C0C0" stroke-width="1.4168" stroke-linecap="round" stroke-linejoin="round"/>
<path d="M144.742 178.796H152.624C152.773 178.792 152.915 178.731 153.021 178.625C153.127 178.52 153.188 178.378 153.192 178.229C153.188 178.08 153.127 177.938 153.021 177.833C152.915 177.728 152.773 177.667 152.624 177.663H144.742C144.593 177.667 144.45 177.728 144.345 177.833C144.239 177.938 144.178 178.08 144.174 178.229C144.172 178.304 144.186 178.378 144.214 178.448C144.242 178.517 144.284 178.58 144.337 178.633C144.39 178.686 144.453 178.728 144.523 178.756C144.593 178.784 144.667 178.797 144.742 178.796Z" fill="#C0C0C0"/>
<path d="M306.763 159.16H340.941C341.362 159.157 341.765 158.989 342.063 158.692C342.36 158.396 342.529 157.994 342.532 157.574V147.228C342.529 146.808 342.36 146.407 342.063 146.11C341.765 145.813 341.362 145.645 340.941 145.642H306.763C306.342 145.645 305.939 145.813 305.641 146.11C305.343 146.407 305.175 146.808 305.172 147.228V157.574C305.175 157.994 305.343 158.396 305.641 158.692C305.939 158.989 306.342 159.157 306.763 159.16V159.16Z" stroke="#C0C0C0" stroke-width="1.4168" stroke-linecap="round" stroke-linejoin="round"/>
<path d="M319.91 149.267H327.791C327.941 149.263 328.083 149.202 328.189 149.097C328.295 148.991 328.356 148.85 328.36 148.701C328.356 148.552 328.295 148.41 328.189 148.304C328.083 148.199 327.941 148.138 327.791 148.134H319.91C319.761 148.138 319.618 148.199 319.513 148.304C319.407 148.41 319.346 148.552 319.342 148.701C319.34 148.775 319.354 148.85 319.382 148.919C319.41 148.989 319.452 149.052 319.505 149.104C319.558 149.157 319.621 149.199 319.691 149.227C319.761 149.255 319.835 149.268 319.91 149.267Z" fill="#C0C0C0"/>
<path d="M306.761 176.454H340.939C341.36 176.451 341.763 176.283 342.061 175.987C342.359 175.69 342.527 175.288 342.53 174.869V164.522C342.527 164.102 342.359 163.701 342.061 163.404C341.763 163.107 341.36 162.939 340.939 162.936H306.761C306.34 162.939 305.937 163.107 305.639 163.404C305.342 163.701 305.173 164.102 305.17 164.522V174.831C305.168 175.042 305.207 175.251 305.285 175.446C305.364 175.642 305.48 175.82 305.628 175.971C305.776 176.122 305.952 176.242 306.147 176.325C306.341 176.408 306.55 176.452 306.761 176.454Z" stroke="#C0C0C0" stroke-width="1.4168" stroke-linecap="round" stroke-linejoin="round"/>
<path d="M319.91 166.561H327.791C327.941 166.557 328.083 166.496 328.189 166.391C328.295 166.286 328.356 166.144 328.36 165.995C328.356 165.846 328.295 165.704 328.189 165.599C328.083 165.493 327.941 165.432 327.791 165.428H319.91C319.761 165.432 319.618 165.493 319.513 165.599C319.407 165.704 319.346 165.846 319.342 165.995C319.34 166.07 319.354 166.144 319.382 166.213C319.41 166.283 319.452 166.346 319.505 166.399C319.558 166.452 319.621 166.493 319.691 166.521C319.761 166.549 319.835 166.563 319.91 166.561Z" fill="#C0C0C0"/>
<path d="M37.9275 132.954H210.33C210.791 132.95 211.231 132.765 211.557 132.44C211.883 132.116 212.068 131.677 212.073 131.217V101.122C212.068 100.663 211.883 100.224 211.557 99.8996C211.231 99.5749 210.791 99.3903 210.33 99.3854H37.9275C37.4668 99.3903 37.0263 99.5749 36.7005 99.8996C36.3747 100.224 36.1895 100.663 36.1846 101.122V131.217C36.1841 131.446 36.2288 131.672 36.3162 131.883C36.4036 132.094 36.532 132.285 36.694 132.447C36.8559 132.608 37.0483 132.736 37.2599 132.823C37.4716 132.91 37.6985 132.955 37.9275 132.954V132.954Z" stroke="#C0C0C0" stroke-width="1.4168" stroke-linecap="round" stroke-linejoin="round"/>
<path d="M37.9275 170.337H210.33C210.791 170.332 211.231 170.148 211.557 169.823C211.883 169.498 212.068 169.059 212.073 168.6V138.505C212.068 138.046 211.883 137.607 211.557 137.282C211.231 136.958 210.791 136.773 210.33 136.768H37.9275C37.4668 136.773 37.0263 136.958 36.7005 137.282C36.3747 137.607 36.1895 138.046 36.1846 138.505V168.6C36.1895 169.059 36.3747 169.498 36.7005 169.823C37.0263 170.148 37.4668 170.332 37.9275 170.337V170.337Z" stroke="#C0C0C0" stroke-width="1.4168" stroke-linecap="round" stroke-linejoin="round"/>
<path d="M200.491 113.969H196.74V132.962H200.491V113.969Z" stroke="#C0C0C0" stroke-width="1.4168" stroke-linecap="round" stroke-linejoin="round"/>
<path d="M196.725 119.149H192.822V132.97H196.725V119.149Z" stroke="#C0C0C0" stroke-width="1.4168" stroke-linecap="round" stroke-linejoin="round"/>
<path d="M87.4328 151.291H83.6816V170.284H87.4328V151.291Z" stroke="#C0C0C0" stroke-width="1.4168" stroke-linecap="round" stroke-linejoin="round"/>
<path d="M83.6664 156.472H79.7637V170.292H83.6664V156.472Z" stroke="#C0C0C0" stroke-width="1.4168" stroke-linecap="round" stroke-linejoin="round"/>
<path d="M95.0441 151.291H91.293V170.284H95.0441V151.291Z" stroke="#C0C0C0" stroke-width="1.4168" stroke-linecap="round" stroke-linejoin="round"/>
<path d="M98.5557 150.862L94.9785 151.988L100.716 170.1L104.293 168.975L98.5557 150.862Z" stroke="#C0C0C0" stroke-width="1.4168" stroke-linecap="round" stroke-linejoin="round"/>
<path d="M91.3168 156.472H87.4141V170.292H91.3168V156.472Z" stroke="#C0C0C0" stroke-width="1.4168" stroke-linecap="round" stroke-linejoin="round"/>
<path d="M83.7378 116.453L83.321 110.827C83.3129 110.739 83.3237 110.65 83.3527 110.566C83.3816 110.483 83.4281 110.406 83.4891 110.342C83.55 110.278 83.624 110.227 83.706 110.194C83.7881 110.16 83.8765 110.144 83.9652 110.147H87.2237C87.3115 110.148 87.3982 110.166 87.4787 110.201C87.5591 110.235 87.6317 110.286 87.6919 110.35C87.7521 110.413 87.7988 110.488 87.829 110.57C87.8593 110.652 87.8725 110.74 87.8679 110.827L87.4511 116.453C87.4511 116.453 90.8612 118.643 90.8233 120.456C90.7855 121.853 89.9519 128.537 89.573 131.482C89.5247 131.878 89.3322 132.243 89.0319 132.508C88.7316 132.772 88.3444 132.918 87.9437 132.917H83.2452C82.8445 132.918 82.4573 132.772 82.157 132.508C81.8567 132.243 81.6642 131.878 81.6159 131.482C81.237 128.537 80.4034 121.853 80.3655 120.456C80.3277 118.643 83.7378 116.453 83.7378 116.453Z" fill="#C0C0C0"/>
<path d="M325.897 205.945H-36.2617" stroke="#C0C0C0" stroke-width="1.4168" stroke-linecap="round" stroke-linejoin="round"/>
<path d="M160.618 170.337H129.093C128.601 170.336 128.129 170.141 127.781 169.794C127.433 169.447 127.237 168.977 127.236 168.487V163.503C127.237 163.012 127.433 162.542 127.781 162.195C128.129 161.849 128.601 161.653 129.093 161.652H160.618C161.11 161.653 161.582 161.849 161.93 162.195C162.278 162.542 162.474 163.012 162.475 163.503V168.449C162.478 168.695 162.433 168.939 162.341 169.167C162.25 169.395 162.114 169.603 161.941 169.779C161.768 169.954 161.563 170.094 161.336 170.19C161.108 170.286 160.865 170.336 160.618 170.337V170.337Z" stroke="#C0C0C0" stroke-width="1.4168" stroke-linecap="round" stroke-linejoin="round"/>
<path d="M156.186 153.723H133.451V161.652H156.186V153.723Z" stroke="#C0C0C0" stroke-width="1.4168" stroke-linecap="round" stroke-linejoin="round"/>
<path d="M130.799 165.126C131.113 165.126 131.367 164.873 131.367 164.56C131.367 164.247 131.113 163.993 130.799 163.993C130.485 163.993 130.23 164.247 130.23 164.56C130.23 164.873 130.485 165.126 130.799 165.126Z" fill="#C0C0C0"/>
<path d="M154.519 174.831H150.616L150.199 179.664H153.95L154.519 174.831Z" fill="#6DAFA7"/>
<path d="M150.199 179.664L145.235 235.927C145.225 236.079 145.245 236.231 145.295 236.375C145.346 236.519 145.424 236.651 145.527 236.764C145.629 236.877 145.754 236.968 145.892 237.032C146.031 237.095 146.181 237.131 146.334 237.135C146.606 237.135 146.869 237.035 147.071 236.854C147.274 236.673 147.403 236.423 147.433 236.154L153.95 179.664H150.199Z" fill="#B0D7C0"/>
<path d="M188.62 174.831H184.717L185.285 179.664H189.036L188.62 174.831Z" fill="#B0D7C0"/>
<path d="M185.285 179.664L191.802 236.154C191.847 236.432 191.997 236.683 192.221 236.854C192.446 237.026 192.727 237.105 193.009 237.076C193.29 237.047 193.549 236.912 193.734 236.698C193.918 236.485 194.013 236.209 194 235.927L189.036 179.664H185.285Z" fill="#B0D7C0"/>
<path d="M190.06 205.417H149.82V207.342H190.06V205.417Z" fill="#B0D7C0"/>
<path d="M192.637 176.228H146.6C146.425 176.229 146.252 176.195 146.091 176.129C145.93 176.063 145.783 175.966 145.66 175.843C145.536 175.72 145.439 175.574 145.372 175.413C145.306 175.252 145.272 175.08 145.273 174.906V174.793C145.272 174.619 145.306 174.447 145.372 174.286C145.439 174.125 145.536 173.979 145.66 173.856C145.783 173.733 145.93 173.636 146.091 173.57C146.252 173.504 146.425 173.47 146.6 173.471H192.675C192.849 173.47 193.022 173.504 193.183 173.57C193.345 173.636 193.491 173.733 193.615 173.856C193.738 173.979 193.836 174.125 193.902 174.286C193.968 174.447 194.002 174.619 194.001 174.793V174.906C193.995 175.261 193.848 175.6 193.592 175.848C193.337 176.095 192.993 176.232 192.637 176.228Z" fill="#22272E"/>
<path d="M263.606 152.854L229.693 150.777C229.097 150.744 228.514 150.585 227.984 150.31C227.455 150.035 226.99 149.651 226.62 149.183C226.251 148.715 225.986 148.174 225.843 147.596C225.7 147.018 225.682 146.416 225.791 145.831L238.711 73.6706C238.934 72.4674 239.542 71.3683 240.443 70.5379C241.345 69.7075 242.492 69.1903 243.713 69.0638L277.777 65.7786C278.424 65.7176 279.077 65.8058 279.685 66.0362C280.293 66.2666 280.839 66.6332 281.282 67.1076C281.725 67.582 282.053 68.1516 282.24 68.7723C282.427 69.393 282.469 70.0483 282.361 70.6875L269.479 148.172C269.261 149.541 268.538 150.78 267.451 151.646C266.365 152.512 264.994 152.943 263.606 152.854Z" fill="#F8AB5D"/>
<path d="M261.748 152.628L227.836 150.551C227.24 150.518 226.657 150.359 226.127 150.084C225.597 149.809 225.132 149.424 224.763 148.956C224.394 148.488 224.129 147.947 223.986 147.369C223.843 146.791 223.825 146.19 223.933 145.604L236.854 73.444C237.077 72.2408 237.684 71.1418 238.586 70.3114C239.487 69.481 240.634 68.9638 241.856 68.8372L275.919 65.5521C276.567 65.4911 277.22 65.5792 277.827 65.8097C278.435 66.0401 278.982 66.4067 279.425 66.8811C279.868 67.3555 280.196 67.9251 280.383 68.5458C280.57 69.1665 280.611 69.8217 280.504 70.4609L267.621 147.945C267.397 149.312 266.672 150.546 265.587 151.411C264.503 152.276 263.135 152.709 261.748 152.628Z" fill="#FFE779"/>
<path d="M295.926 111.846L243.713 112.753C243.394 112.758 243.079 112.692 242.788 112.561C242.498 112.43 242.241 112.237 242.034 111.995C241.828 111.753 241.678 111.469 241.594 111.163C241.511 110.856 241.497 110.535 241.553 110.223L245.38 88.5104C245.489 87.9112 245.793 87.3645 246.245 86.9549C246.697 86.5453 247.272 86.2957 247.881 86.2448L299.412 82.8086C299.824 82.782 300.236 82.8484 300.619 83.003C301.001 83.1576 301.344 83.3963 301.621 83.7013C301.898 84.0063 302.102 84.3697 302.218 84.7643C302.334 85.159 302.359 85.5747 302.292 85.9805L298.503 109.581C298.432 110.21 298.129 110.79 297.653 111.209C297.177 111.628 296.561 111.855 295.926 111.846Z" fill="#F8AB5D"/>
<path d="M290.167 146.85L237.953 144.585C237.646 144.568 237.346 144.488 237.072 144.348C236.798 144.209 236.557 144.013 236.364 143.775C236.171 143.536 236.03 143.26 235.952 142.963C235.873 142.667 235.858 142.357 235.907 142.055L239.848 119.814C239.961 119.183 240.292 118.611 240.783 118.197C241.274 117.784 241.895 117.554 242.538 117.548L294.145 117.133C294.544 117.132 294.938 117.217 295.3 117.383C295.662 117.548 295.984 117.79 296.244 118.091C296.503 118.393 296.694 118.747 296.802 119.129C296.911 119.511 296.935 119.912 296.873 120.305L293.008 144.585C292.893 145.242 292.541 145.836 292.017 146.253C291.494 146.67 290.836 146.882 290.167 146.85Z" fill="#F8AB5D"/>
<path d="M236.059 77.7864L279.86 74.3125" stroke="#F8AB5D" stroke-width="1.4168" stroke-linecap="round" stroke-linejoin="round"/>
<path d="M258.338 72.5377L254.587 72.8776C254.246 72.9153 254.057 72.651 254.095 72.2734C254.126 72.0946 254.212 71.9298 254.341 71.8014C254.47 71.6731 254.635 71.5873 254.815 71.556L258.566 71.2161C258.907 71.1784 259.134 71.4427 259.058 71.8203C259.021 71.9965 258.933 72.1582 258.805 72.2856C258.677 72.413 258.515 72.5006 258.338 72.5377Z" fill="#22272E"/>
<path d="M260.839 72.3112C260.498 72.3489 260.271 72.0846 260.347 71.707C260.378 71.5282 260.464 71.3634 260.593 71.235C260.722 71.1067 260.887 71.0209 261.067 70.9895C261.408 70.9518 261.635 71.2161 261.559 71.5937C261.54 71.7775 261.458 71.9492 261.327 72.0798C261.196 72.2105 261.024 72.2922 260.839 72.3112Z" fill="#22272E"/>
<path d="M303.05 74.8789L288.614 75.9739C288.494 75.9886 288.372 75.9745 288.259 75.9329C288.146 75.8913 288.044 75.8233 287.963 75.7347C287.881 75.646 287.822 75.5392 287.79 75.4232C287.759 75.3072 287.755 75.1853 287.78 75.0677L289.22 66.345C289.26 66.0863 289.387 65.8485 289.579 65.6704C289.772 65.4922 290.019 65.384 290.281 65.3633L304.566 63.8528C304.707 63.8375 304.85 63.8547 304.984 63.903C305.118 63.9513 305.239 64.0295 305.337 64.1315C305.436 64.2336 305.51 64.3568 305.554 64.4918C305.597 64.6267 305.609 64.7698 305.589 64.9101L304.187 73.8971C304.119 74.156 303.974 74.3883 303.771 74.5635C303.568 74.7388 303.317 74.8487 303.05 74.8789V74.8789Z" stroke="#6DAFA7" stroke-width="1.4168" stroke-linecap="round" stroke-linejoin="round"/>
<path d="M289.598 65.5898L295.888 69.6302C296.056 69.7408 296.254 69.7997 296.456 69.7997C296.658 69.7997 296.855 69.7408 297.024 69.6302L305.209 64.0417" stroke="#6DAFA7" stroke-width="1.4168" stroke-linecap="round" stroke-linejoin="round"/>
<path d="M237.915 91.1914L226.055 91.8333L224.312 92.9661C224.222 93.0253 224.116 93.0564 224.008 93.0555C223.9 93.0545 223.794 93.0217 223.705 92.961C223.616 92.9003 223.547 92.8146 223.506 92.7147C223.466 92.6147 223.456 92.5051 223.478 92.3997L225.335 82.1289C225.408 81.7295 225.611 81.3651 225.912 81.0921C226.213 80.8191 226.596 80.6526 227.002 80.6185L239.355 79.6745C239.543 79.6579 239.733 79.6846 239.909 79.7526C240.086 79.8206 240.244 79.9281 240.372 80.0667C240.5 80.2053 240.595 80.3714 240.648 80.5522C240.702 80.733 240.713 80.9236 240.681 81.1094L239.089 90.0963C239.048 90.3849 238.909 90.6507 238.695 90.8498C238.482 91.0489 238.206 91.1694 237.915 91.1914Z" fill="#6DAFA7"/>
<path d="M227.646 83.6394L237.65 82.9219" stroke="#22272E" stroke-width="1.4168" stroke-linecap="round" stroke-linejoin="round"/>
<path d="M227.191 86.1693L237.195 85.4896" stroke="#22272E" stroke-width="1.4168" stroke-linecap="round" stroke-linejoin="round"/>
<path d="M226.738 88.6614L231.967 88.3594" stroke="#22272E" stroke-width="1.4168" stroke-linecap="round" stroke-linejoin="round"/>
<path d="M293.121 109.543L240.908 110.449C240.59 110.454 240.274 110.389 239.984 110.258C239.694 110.127 239.436 109.934 239.23 109.692C239.023 109.45 238.873 109.166 238.79 108.859C238.707 108.553 238.692 108.232 238.748 107.919L242.575 86.207C242.684 85.6078 242.988 85.0611 243.44 84.6515C243.892 84.2419 244.467 83.9923 245.076 83.9414L296.607 80.5052C297.019 80.4786 297.432 80.5451 297.814 80.6996C298.197 80.8542 298.539 81.0929 298.816 81.3979C299.093 81.7029 299.297 82.0663 299.413 82.461C299.529 82.8556 299.555 83.2713 299.487 83.6771L295.698 107.277C295.622 107.904 295.317 108.481 294.842 108.899C294.367 109.316 293.755 109.546 293.121 109.543Z" fill="#22272E"/>
<path d="M254.436 93.1172C254.171 94.6654 252.807 95.987 251.405 96.0625C250.003 96.138 249.093 94.9297 249.358 93.3815C249.624 91.8334 250.988 90.5117 252.39 90.4362C253.792 90.3607 254.701 91.569 254.436 93.1172Z" fill="#FFE779"/>
<path d="M253.451 103.048L247.237 103.237C247.039 103.245 246.841 103.209 246.659 103.131C246.477 103.053 246.315 102.936 246.184 102.787C246.053 102.639 245.958 102.463 245.904 102.273C245.85 102.083 245.839 101.883 245.873 101.689L245.986 101.009C246.479 98.2148 248.904 95.8359 251.443 95.7604C253.981 95.6471 255.686 97.875 255.194 100.707L255.042 101.689C254.968 102.06 254.771 102.396 254.482 102.643C254.194 102.889 253.83 103.032 253.451 103.048Z" fill="#FFE779"/>
<path d="M287.514 93.3815L262.771 94.5143C262.649 94.5232 262.527 94.5038 262.414 94.4577C262.301 94.4116 262.2 94.34 262.119 94.2486C262.039 94.1571 261.98 94.0483 261.949 93.9307C261.917 93.813 261.913 93.6897 261.938 93.5703L262.203 91.9088C262.252 91.6372 262.39 91.3896 262.596 91.205C262.802 91.0204 263.063 90.9093 263.34 90.8893L288.12 89.6055C288.243 89.5942 288.366 89.6119 288.48 89.6572C288.595 89.7025 288.697 89.7741 288.778 89.8662C288.859 89.9582 288.917 90.0681 288.948 90.1868C288.979 90.3056 288.98 90.4298 288.954 90.5495L288.651 92.362C288.614 92.6389 288.479 92.8936 288.271 93.0805C288.062 93.2673 287.794 93.3741 287.514 93.3815Z" fill="#6DAFA7"/>
<path d="M262.507 98.9701L262.886 100.141L264.061 100.329L263.037 101.349L262.962 102.671L261.977 102.142L260.764 102.746L261.143 101.424L260.461 100.48L261.711 100.178L262.507 98.9701Z" fill="#FFE779"/>
<path d="M268.191 98.7813L268.607 99.9519L269.782 100.141L268.759 101.16L268.721 102.482L267.66 101.953L266.448 102.557L266.827 101.236L266.145 100.254L267.395 99.9896L268.191 98.7813Z" fill="#FFE779"/>
<path d="M274.024 98.5547L274.441 99.7253L275.654 99.9518L274.593 100.971L274.555 102.331L273.494 101.764L272.243 102.406L272.622 101.047L271.902 100.065L273.229 99.763L274.024 98.5547Z" fill="#FFE779"/>
<path d="M279.974 98.3281L280.391 99.5364L281.641 99.7252L280.58 100.783L280.543 102.142L279.444 101.575L278.155 102.217L278.572 100.82L277.814 99.8763L279.141 99.5742L279.974 98.3281Z" fill="#FFE779"/>
<path d="M286.075 98.1016L286.491 99.3099L287.78 99.5365L286.681 100.556L286.643 101.953L285.506 101.387L284.218 102.029L284.635 100.632L283.877 99.6497L285.203 99.3477L286.075 98.1016Z" fill="#FFE779"/>
<path d="M287.324 144.547L235.149 142.243C234.842 142.227 234.541 142.147 234.267 142.007C233.993 141.868 233.752 141.672 233.559 141.434C233.366 141.195 233.226 140.918 233.147 140.622C233.068 140.326 233.053 140.016 233.103 139.714L237.043 117.473C237.156 116.842 237.487 116.27 237.978 115.856C238.47 115.443 239.09 115.213 239.733 115.207L291.341 114.792C291.739 114.791 292.133 114.876 292.495 115.041C292.858 115.207 293.18 115.449 293.439 115.75C293.698 116.052 293.889 116.406 293.998 116.788C294.106 117.17 294.131 117.571 294.069 117.964L290.204 142.243C290.088 142.911 289.732 143.514 289.201 143.938C288.671 144.362 288.003 144.579 287.324 144.547Z" fill="#22272E"/>
<path d="M248.866 125.251C248.6 126.837 247.236 128.121 245.797 128.083C244.357 128.046 243.485 126.762 243.75 125.176C244.016 123.59 245.38 122.344 246.782 122.344C248.184 122.344 249.169 123.665 248.866 125.251Z" fill="#FFE779"/>
<path d="M247.767 135.447L241.553 135.258C241.364 135.249 241.178 135.2 241.008 135.116C240.838 135.031 240.688 134.912 240.567 134.766C240.446 134.621 240.356 134.452 240.304 134.27C240.252 134.088 240.239 133.897 240.265 133.71L240.416 132.917C240.909 130.047 243.334 127.781 245.873 127.819C248.411 127.857 250.116 130.236 249.586 133.143L249.434 134.087C249.367 134.476 249.161 134.827 248.855 135.077C248.549 135.327 248.163 135.458 247.767 135.447Z" fill="#FFE779"/>
<path d="M281.869 127.592L257.126 127.253C257.009 127.251 256.893 127.224 256.787 127.174C256.681 127.124 256.588 127.051 256.512 126.962C256.437 126.872 256.381 126.767 256.35 126.655C256.319 126.542 256.312 126.424 256.331 126.309L256.634 124.572C256.681 124.286 256.829 124.026 257.051 123.839C257.273 123.652 257.555 123.55 257.846 123.552L282.627 123.741C282.744 123.743 282.859 123.77 282.965 123.82C283.071 123.87 283.165 123.942 283.241 124.032C283.316 124.121 283.372 124.226 283.403 124.339C283.434 124.451 283.441 124.569 283.422 124.685L283.119 126.573C283.057 126.859 282.899 127.115 282.672 127.3C282.445 127.485 282.162 127.588 281.869 127.592Z" fill="#6DAFA7"/>
<path d="M256.899 131.822L257.278 133.03L258.452 133.294L257.429 134.276L257.391 135.635L256.368 134.993L255.156 135.56L255.535 134.201L254.891 133.219L256.103 132.992L256.899 131.822Z" fill="#FFE779"/>
<path d="M262.619 131.935L262.998 133.143L264.211 133.445L263.15 134.427L263.112 135.786L262.051 135.182L260.838 135.749L261.217 134.389L260.535 133.332L261.823 133.143L262.619 131.935Z" fill="#FFE779"/>
<path d="M268.456 132.086L268.835 133.294L270.085 133.596L269.024 134.578L268.948 135.975L267.887 135.333L266.637 135.9L267.054 134.54L266.334 133.483L267.622 133.294L268.456 132.086Z" fill="#FFE779"/>
<path d="M274.404 132.199L274.821 133.445L276.071 133.747L274.972 134.767L274.934 136.164L273.836 135.522L272.547 136.089L272.964 134.691L272.244 133.634L273.57 133.408L274.404 132.199Z" fill="#63737A"/>
<path d="M280.467 132.35L280.922 133.596L282.172 133.898L281.073 134.918L281.036 136.353L279.937 135.673L278.611 136.277L279.027 134.842L278.27 133.823L279.634 133.596L280.467 132.35Z" fill="#63737A"/>
<path d="M286.414 57.5091C286.212 57.2898 285.95 57.1347 285.66 57.0633C285.37 56.992 285.066 57.0075 284.785 57.1081C284.504 57.2086 284.259 57.3896 284.081 57.6284C283.902 57.8672 283.799 58.1531 283.783 58.4503C283.768 58.7474 283.84 59.0426 283.992 59.2987C284.144 59.5548 284.369 59.7605 284.638 59.8899C284.907 60.0192 285.208 60.0666 285.504 60.0259C285.8 59.9853 286.077 59.8585 286.301 59.6615C286.451 59.5286 286.574 59.3671 286.662 59.1864C286.749 59.0057 286.8 58.8094 286.81 58.6091C286.821 58.4087 286.791 58.2082 286.723 58.0194C286.655 57.8305 286.55 57.657 286.414 57.5091Z" fill="#22272E"/>
<path d="M284.369 53.9597L284.104 53.6576C283.891 53.4232 283.633 53.2332 283.346 53.0986C283.058 52.964 282.747 52.8875 282.43 52.8735C282.113 52.8594 281.796 52.9081 281.498 53.0168C281.2 53.1255 280.927 53.2919 280.693 53.5065C280.458 53.7189 280.268 53.9757 280.133 54.2619C279.998 54.5482 279.921 54.8583 279.907 55.1743C279.893 55.4903 279.941 55.8059 280.05 56.103C280.16 56.4 280.327 56.6726 280.542 56.905L280.807 57.2071C281.116 57.5524 281.337 57.9669 281.451 58.4154C281.527 58.7552 281.641 59.1706 281.754 59.5482C281.803 59.7365 281.899 59.9093 282.033 60.0499C282.168 60.1905 282.337 60.2943 282.523 60.3512C282.71 60.4081 282.908 60.4162 283.098 60.3748C283.289 60.3333 283.465 60.2437 283.611 60.1146L285.316 58.5664L287.021 57.0183C287.162 56.8865 287.268 56.721 287.327 56.5374C287.386 56.3538 287.397 56.1582 287.359 55.9692C287.321 55.7801 287.235 55.6038 287.11 55.457C286.984 55.3102 286.824 55.1977 286.642 55.1302C286.263 54.9792 285.884 54.8659 285.543 54.7526C285.11 54.5553 284.713 54.2873 284.369 53.9597Z" fill="#6DAFA7"/>
<path d="M141.976 106.635L96.6583 114.187C96.2699 114.25 95.8729 114.234 95.4905 114.142C95.108 114.05 94.7477 113.884 94.4304 113.652C94.1132 113.42 93.8453 113.128 93.6423 112.792C93.4394 112.456 93.3054 112.083 93.2481 111.695L87.4509 70.3854C87.3968 70.0075 87.4304 69.6223 87.5491 69.2594C87.6678 68.8965 87.8684 68.5656 88.1356 68.292C88.4027 68.0185 88.7293 67.8097 89.0901 67.6816C89.4509 67.5536 89.8364 67.5097 90.2169 67.5534L135.004 72.8398C135.631 72.9124 136.219 73.1821 136.682 73.6098C137.145 74.0375 137.46 74.601 137.58 75.2187L143.34 104.71C143.414 105.145 143.313 105.593 143.057 105.954C142.801 106.315 142.412 106.56 141.976 106.635Z" fill="#F8AB5D"/>
<path d="M143.871 106.107L98.5536 113.659C98.1652 113.721 97.7682 113.706 97.3858 113.614C97.0033 113.522 96.643 113.355 96.3257 113.123C96.0085 112.891 95.7406 112.599 95.5377 112.263C95.3347 111.927 95.2007 111.555 95.1435 111.167L89.3083 69.8568C89.2542 69.4789 89.2878 69.0937 89.4065 68.7308C89.5252 68.3679 89.7259 68.037 89.993 67.7635C90.2602 67.4899 90.5867 67.2811 90.9475 67.1531C91.3083 67.025 91.6938 66.9811 92.0743 67.0248L136.861 72.3112C137.488 72.3839 138.076 72.6535 138.539 73.0812C139.003 73.5089 139.317 74.0724 139.438 74.6901L145.197 104.181C145.242 104.395 145.243 104.615 145.2 104.829C145.157 105.043 145.071 105.246 144.947 105.426C144.823 105.606 144.664 105.759 144.479 105.876C144.294 105.993 144.087 106.072 143.871 106.107Z" fill="#FFE779"/>
<path d="M114.922 104.03L103.744 105.314C103.347 105.368 102.945 105.263 102.626 105.022C102.306 104.782 102.095 104.425 102.039 104.03L97.9467 76.7669C97.9178 76.5884 97.9306 76.4057 97.9839 76.2329C98.0373 76.0602 98.1298 75.9019 98.2544 75.7705C98.3789 75.6391 98.5321 75.538 98.7022 75.475C98.8722 75.4121 99.0545 75.389 99.235 75.4075L110.413 76.2382C110.758 76.2603 111.086 76.3998 111.341 76.6334C111.596 76.867 111.763 77.1806 111.815 77.5221L115.983 102.671C116.013 102.989 115.921 103.308 115.723 103.561C115.526 103.813 115.239 103.981 114.922 104.03Z" fill="#22272E"/>
<path d="M115.832 103.539L104.654 104.823C104.257 104.877 103.855 104.772 103.536 104.531C103.216 104.291 103.005 103.934 102.949 103.539L98.8569 76.276C98.828 76.0976 98.8407 75.9149 98.8941 75.7421C98.9474 75.5693 99.04 75.4111 99.1645 75.2797C99.2891 75.1482 99.4423 75.0471 99.6123 74.9842C99.7824 74.9212 99.9647 74.8981 100.145 74.9167L111.323 75.7474C111.669 75.7695 111.996 75.9089 112.251 76.1426C112.506 76.3762 112.674 76.6898 112.725 77.0312L116.893 102.18C116.931 102.5 116.842 102.822 116.643 103.077C116.444 103.331 116.153 103.498 115.832 103.539Z" fill="#6DAFA7"/>
<path d="M104.805 77.0312L106.548 77.1445" stroke="#22272E" stroke-width="1.4168" stroke-linecap="round" stroke-linejoin="round"/>
<path d="M107.457 77.22H107.571" stroke="#22272E" stroke-width="1.4168" stroke-linecap="round" stroke-linejoin="round"/>
<path d="M99.1973 78.4284L113.065 79.1458" stroke="#22272E" stroke-width="1.4168" stroke-linecap="round" stroke-linejoin="round"/>
<path d="M102.646 101.424L116.514 100.141" stroke="#22272E" stroke-width="1.4168" stroke-linecap="round" stroke-linejoin="round"/>
<path d="M130.875 80.4297C131.064 81.487 130.572 82.3177 129.776 82.28C128.98 82.2422 128.109 81.336 127.919 80.2787C127.73 79.2214 128.222 78.3529 129.056 78.4284C129.89 78.5039 130.647 79.3724 130.875 80.4297Z" fill="#22272E"/>
<path d="M132.351 87.1888H128.941C128.65 87.1908 128.368 87.0892 128.145 86.9023C127.923 86.7153 127.775 86.4554 127.728 86.1693L127.614 85.5651C127.273 83.5638 128.221 82.0157 129.698 82.0534C131.176 82.0912 132.616 83.6771 132.957 85.6029L133.071 86.2826C133.101 86.3911 133.104 86.5051 133.082 86.6153C133.059 86.7255 133.011 86.8289 132.941 86.9172C132.871 87.0054 132.781 87.0759 132.678 87.1231C132.576 87.1703 132.464 87.1928 132.351 87.1888Z" fill="#22272E"/>
<path d="M128.373 93.155C128.563 94.2878 128.032 95.2318 127.161 95.3073C126.289 95.3828 125.38 94.4766 125.191 93.306C125.001 92.1354 125.532 91.1914 126.441 91.1537C127.35 91.1159 128.146 92.0222 128.373 93.155Z" fill="#22272E"/>
<path d="M129.889 100.367L126.289 100.745C125.974 100.778 125.659 100.692 125.406 100.503C125.152 100.313 124.981 100.036 124.925 99.7253L124.811 99.1211C124.432 97.0065 125.455 95.194 127.085 95.0807C128.638 94.9674 130.192 96.5534 130.571 98.5924L130.684 99.2721C130.713 99.3969 130.715 99.5264 130.689 99.6518C130.663 99.7772 130.611 99.8958 130.536 99.9994C130.46 100.103 130.364 100.19 130.252 100.253C130.14 100.316 130.017 100.355 129.889 100.367Z" fill="#22272E"/>
<path d="M137.619 92.7018C137.808 93.7591 137.391 94.6276 136.634 94.7032C135.876 94.7787 135.08 93.9102 134.891 92.8529C134.701 91.7956 135.156 90.8894 135.914 90.8516C136.671 90.8138 137.429 91.6823 137.619 92.7018Z" fill="#22272E"/>
<path d="M138.982 99.4231L136.178 99.7252C135.868 99.7579 135.557 99.6702 135.31 99.4803C135.063 99.2904 134.899 99.013 134.852 98.7057L134.776 98.2148C134.398 96.2513 135.269 94.5898 136.633 94.4765C137.997 94.401 139.361 95.8737 139.702 97.7617L139.816 98.3281C139.85 98.5834 139.782 98.8419 139.626 99.0471C139.47 99.2523 139.238 99.3875 138.982 99.4231Z" fill="#22272E"/>
<path d="M117.84 87.9062L121.326 87.8685" stroke="#22272E" stroke-width="1.4168" stroke-linecap="round" stroke-linejoin="round"/>
<path d="M121.251 89.4544L123.221 88.1705C123.275 88.1386 123.319 88.0925 123.348 88.0371C123.378 87.9818 123.391 87.9194 123.387 87.8569C123.384 87.7944 123.362 87.7342 123.326 87.6829C123.29 87.6317 123.241 87.5913 123.183 87.5664L120.758 86.3203C120.7 86.2857 120.634 86.2691 120.567 86.2729C120.5 86.2766 120.435 86.3004 120.382 86.3413C120.329 86.3821 120.289 86.4379 120.268 86.5016C120.248 86.5652 120.247 86.6336 120.265 86.6979L120.72 89.2278C120.726 89.2863 120.747 89.3421 120.782 89.3894C120.817 89.4368 120.864 89.474 120.918 89.4971C120.972 89.5202 121.032 89.5285 121.09 89.521C121.149 89.5135 121.204 89.4905 121.251 89.4544Z" fill="#22272E"/>
<path d="M208.246 216.934C208.246 216.934 208.777 222.107 209.231 224.788C209.345 225.581 212.338 226.487 215.066 225.921C218.439 225.241 218.628 223.315 218.628 223.315C218.628 223.315 217.984 214.253 217.908 213.611C217.832 212.969 208.739 214.668 208.246 216.934Z" fill="#B28D93"/>
<path d="M217.795 220.294C215.181 221.616 211.771 221.654 209.762 221.54C209.317 221.517 208.894 221.337 208.568 221.033C208.242 220.729 208.035 220.32 207.982 219.879C207.792 218.217 207.641 216.934 207.641 216.934C208.171 214.404 218.364 212.516 218.439 213.233C218.477 213.573 218.667 216.027 218.856 218.482C218.873 218.854 218.782 219.222 218.594 219.544C218.406 219.865 218.128 220.126 217.795 220.294Z" fill="#22272E"/>
<path d="M209.157 224.486C209.157 224.486 208.665 225.128 208.892 226.6C209.119 228.073 208.854 234.681 209.688 235.474C210.521 236.267 219.918 235.7 224.124 234.756C228.633 233.737 231.475 231.962 231.778 231.018C232.233 229.659 231.854 229.47 227.193 228.111C222.533 226.751 220.183 224.825 219.198 223.73C219.002 223.502 218.762 223.316 218.493 223.182C218.223 223.049 217.929 222.971 217.628 222.953C217.327 222.936 217.026 222.979 216.743 223.08C216.459 223.181 216.199 223.338 215.978 223.542C215.409 224.033 214.727 225.807 213.477 225.807C210.483 225.769 209.46 224.335 209.157 224.486Z" fill="#22272E"/>
<path d="M225.487 227.091C225.487 227.091 222.002 227.393 219.463 231.018" stroke="#C0C0C0" stroke-width="1.4168" stroke-linecap="round" stroke-linejoin="round"/>
<path d="M222.607 225.77C221.512 225.955 220.467 226.367 219.541 226.978C218.614 227.59 217.826 228.387 217.227 229.319" stroke="#C0C0C0" stroke-width="1.4168" stroke-linecap="round" stroke-linejoin="round"/>
<path d="M176.571 217.047C176.571 217.047 176.041 224.335 175.965 224.674C175.889 225.014 176.495 226.789 180.095 227.28C183.695 227.771 184.907 225.581 184.907 225.581C184.907 225.581 186.195 218.897 186.423 217.689C186.65 216.48 177.746 215.801 176.571 217.047Z" fill="#B28D93"/>
<path d="M187.104 217.538C186.991 218.029 186.725 219.388 186.46 220.898C186.388 221.302 186.187 221.671 185.886 221.95C185.585 222.23 185.202 222.404 184.793 222.447C182.175 222.74 179.524 222.403 177.063 221.465C176.669 221.317 176.334 221.046 176.109 220.691C175.883 220.337 175.779 219.919 175.813 219.501C175.926 217.991 176.002 216.745 176.002 216.745C177.291 215.348 187.369 216.178 187.104 217.538Z" fill="#22272E"/>
<path d="M175.964 224.41C175.964 224.41 175.054 224.637 174.979 226.185C174.903 227.733 173.122 234.794 173.198 235.549C173.273 236.305 173.69 237.249 179.412 237.173C185.133 237.098 188.316 237.4 189.377 236.494C190.438 235.587 188.998 233.51 187.937 231.622C186.876 229.734 185.285 226.902 185.02 225.354C184.634 225.623 184.213 225.839 183.769 225.996C183.428 226.034 183.087 224.41 180.965 224.41C178.502 224.41 177.631 225.77 177.404 225.732C176.775 225.485 176.262 225.014 175.964 224.41Z" fill="#22272E"/>
<path d="M177.518 228.979C177.518 228.979 181.761 227.393 185.512 228.979" stroke="#C0C0C0" stroke-width="1.4168" stroke-linecap="round" stroke-linejoin="round"/>
<path d="M177.215 231.131C177.215 231.131 182.254 229.546 186.422 231.131" stroke="#C0C0C0" stroke-width="1.4168" stroke-linecap="round" stroke-linejoin="round"/>
<path d="M186.194 149.38C186.194 149.38 194.227 151.57 203.851 154.969C212.945 158.178 216.507 160.066 217.492 166.372C218.477 172.678 217.264 195.146 218.477 201.074C219.689 207.003 221.091 211.194 219.917 214.253C219.718 214.846 219.401 215.392 218.984 215.859C218.567 216.327 218.059 216.705 217.492 216.971C217.492 216.971 212.604 219.048 208.246 218.066C207.418 217.809 206.649 217.39 205.985 216.832C205.321 216.274 204.776 215.59 204.382 214.819C202.942 212.138 204.344 203.491 203.245 197.034C202.146 190.577 200.934 179.928 199.607 172.792C198.281 165.655 176.684 162.785 173.918 157.159C171.152 151.533 172.591 146.586 172.591 146.586C172.591 146.586 183.769 146.359 186.194 149.38Z" fill="#22272E"/>
<path d="M180.587 156.555C180.575 155.605 180.487 154.658 180.322 153.723" stroke="#63737A" stroke-width="1.4168" stroke-linecap="round" stroke-linejoin="round"/>
<path d="M217.833 170.526C217.363 170.647 216.879 170.71 216.394 170.715C213.059 170.715 210.217 167.921 210.066 164.522C210.012 163.428 210.259 162.34 210.779 161.375C211.3 160.41 212.075 159.605 213.021 159.047C215.636 160.784 216.962 162.936 217.492 166.41C217.644 167.392 217.758 168.827 217.833 170.526Z" stroke="#63737A" stroke-width="1.4168" stroke-linecap="round" stroke-linejoin="round"/>
<path d="M148.797 149.871C148.797 149.871 148.494 152.665 148.759 159.047C149.024 165.277 153.799 173.434 164.029 173.547C174.26 173.66 180.284 173.547 180.284 173.547C180.284 173.547 179.489 177.172 179.11 186.423C178.731 195.674 175.927 202.018 174.108 207.796C172.517 212.855 172.517 216.405 176.192 218.104C179.548 219.272 183.101 219.772 186.65 219.577C186.65 219.577 189.454 219.35 190.287 212.667C191.121 205.983 194.683 193.069 197.6 184.762C200.518 176.454 202.829 165.806 198.32 162.181C193.811 158.556 178.465 156.366 177.67 155.988C176.874 155.611 176.988 150.513 176.04 147.379C175.131 144.169 151.866 143.565 148.797 149.871Z" fill="#22272E"/>
<path d="M197.637 184.724C200.555 176.454 202.866 165.768 198.357 162.143C193.848 158.518 178.503 156.328 177.707 155.951" stroke="#63737A" stroke-width="1.4168" stroke-linecap="round" stroke-linejoin="round"/>
<path d="M177.745 155.951C177.745 155.951 173.804 155.195 172.213 155.46" stroke="#63737A" stroke-width="1.4168" stroke-linecap="round" stroke-linejoin="round"/>
<path d="M149.479 163.163C150.805 162.596 152.775 161.199 153.987 157.763" stroke="#63737A" stroke-width="1.4168" stroke-linecap="round" stroke-linejoin="round"/>
<path d="M180.283 173.547C180.723 172.37 181.393 171.292 182.254 170.375" stroke="#63737A" stroke-width="1.4168" stroke-linecap="round" stroke-linejoin="round"/>
<path d="M200.859 170.828C200.386 171.8 199.648 172.619 198.73 173.193C197.813 173.767 196.752 174.073 195.668 174.076C192.334 174.076 189.492 171.281 189.34 167.883C189.289 167.088 189.402 166.291 189.672 165.542C189.942 164.793 190.364 164.106 190.911 163.526C191.458 162.945 192.118 162.483 192.852 162.167C193.585 161.851 194.376 161.689 195.175 161.69C196.003 161.693 196.823 161.862 197.584 162.186C198.346 162.51 199.034 162.984 199.609 163.578C200.707 165.353 201.048 167.921 200.859 170.828Z" stroke="#63737A" stroke-width="1.4168" stroke-linecap="round" stroke-linejoin="round"/>
<path d="M177.746 221.729C177.663 221.331 177.663 220.919 177.746 220.521" stroke="#63737A" stroke-width="1.4168" stroke-linecap="round" stroke-linejoin="round"/>
<path d="M181.041 222.447C181.236 222.029 181.364 221.583 181.42 221.125" stroke="#63737A" stroke-width="1.4168" stroke-linecap="round" stroke-linejoin="round"/>
<path d="M184.527 222.447C184.761 222.085 184.94 221.69 185.058 221.276" stroke="#63737A" stroke-width="1.4168" stroke-linecap="round" stroke-linejoin="round"/>
<path d="M210.293 221.54C210.078 221.045 209.925 220.525 209.838 219.992" stroke="#63737A" stroke-width="1.4168" stroke-linecap="round" stroke-linejoin="round"/>
<path d="M214.498 221.314C214.562 220.745 214.524 220.17 214.385 219.615" stroke="#63737A" stroke-width="1.4168" stroke-linecap="round" stroke-linejoin="round"/>
<path d="M218.212 219.992C218.324 219.455 218.311 218.9 218.174 218.368" stroke="#63737A" stroke-width="1.4168" stroke-linecap="round" stroke-linejoin="round"/>
<path d="M178.426 106.145C178.426 106.145 182.177 106.786 188.164 108.184C191.867 109.014 195.611 109.657 199.379 110.109C199.379 110.109 205.556 107.353 212.869 104.219C217.065 102.381 221.353 100.756 225.713 99.3477C225.713 99.3477 227.608 99.4987 228.707 102.255C229.13 103.309 229.298 104.447 229.199 105.578C229.175 105.868 229.083 106.148 228.932 106.397C228.781 106.646 228.574 106.857 228.328 107.013C226.661 108.108 222.076 111.167 214.877 116.113C205.707 122.419 201.88 122.872 197.333 122.684C192.294 122.457 179.79 120.418 179.79 120.418C179.79 120.418 176.418 119.776 175.243 113.772C174.144 107.768 177.251 105.918 178.426 106.145Z" fill="#FFE779"/>
<path d="M199.304 122.684C199.304 122.684 197.826 122.268 198.811 120.607C199.796 118.945 203.661 117.624 206.048 118.605C208.057 119.436 206.844 120.833 206.844 120.833" stroke="#F8AB5D" stroke-width="1.4168" stroke-linecap="round" stroke-linejoin="round"/>
<path d="M223.366 100.141C223.173 101.574 223.411 103.032 224.048 104.332C225.298 106.786 226.814 107.579 227.268 107.73" stroke="#F8AB5D" stroke-width="1.4168" stroke-linecap="round" stroke-linejoin="round"/>
<path d="M225.714 99.3477C225.714 99.3477 225.411 101.651 226.358 103.577C226.709 104.359 227.212 105.065 227.836 105.654C228.022 105.824 228.251 105.938 228.499 105.985C228.747 106.032 229.003 106.009 229.238 105.918C229.682 105.711 230.154 105.571 230.64 105.503C231.474 105.427 233.747 105.918 235.073 104.974C236.399 104.03 236.702 103.917 236.892 103.879C237.081 103.841 239.09 103.841 239.431 103.69C240.113 103.388 240.264 102.255 239.923 101.802C239.62 101.424 237.65 101.387 237.271 100.82C236.892 100.254 237.233 99.6498 239.355 99.1211C241.477 98.5925 245.228 97.4219 245.114 96.5156C245 95.6094 242.992 96.2891 240.416 96.5534C237.839 96.8177 236.627 96.8932 235.566 96.4779C234.505 96.0625 233.065 96.1003 231.436 96.8932C230.375 97.4219 229.238 97.875 227.23 98.7435C226.744 98.9898 226.236 99.192 225.714 99.3477Z" fill="#B28D93"/>
<path d="M239.697 99.0456C239.911 99.654 240.039 100.29 240.075 100.934C240.113 101.764 238.901 104.03 238.029 104.445C237.158 104.861 236.59 104.408 236.211 103.803C235.832 103.199 234.847 99.612 236.741 99.1966C238.636 98.7812 239.318 98.7057 239.697 99.0456Z" fill="#B28D93"/>
<path d="M239.886 101.802C239.583 101.425 237.613 101.387 237.234 100.82C236.855 100.254 237.196 99.6498 239.318 99.1211C241.44 98.5925 245.191 97.4219 245.077 96.5157" stroke="#896068" stroke-width="1.4168" stroke-linecap="round" stroke-linejoin="round"/>
<path d="M236.438 96.7422C235.726 96.7045 235.011 96.7681 234.316 96.931" stroke="#896068" stroke-width="1.4168" stroke-linecap="round" stroke-linejoin="round"/>
<path d="M235.035 104.974C236.361 103.992 236.664 103.917 236.854 103.879C237.043 103.841 239.052 103.841 239.393 103.69" stroke="#896068" stroke-width="1.4168" stroke-linecap="round" stroke-linejoin="round"/>
<path d="M164.482 102.142C164.482 102.142 164.899 100.594 167.741 100.745C170.583 100.896 174.713 102.369 174.978 104.483C175.243 106.598 165.809 107.768 164.482 102.142Z" fill="#22272E"/>
<path d="M184.754 119.247C184.376 107.315 178.465 106.145 178.465 106.145C173.611 105.431 168.706 105.115 163.801 105.201C155.768 105.352 149.478 106.711 146.22 111.318C143.34 115.396 137.05 133.483 138.679 138.505C140.043 142.734 144.06 143.754 151.259 142.508C150.804 145.151 150.274 147.228 150.274 147.228C153.305 149.418 160.012 151.57 170.053 151.57C178.995 151.57 183.504 148.663 183.504 148.663C183.163 145.982 185.095 131.18 184.754 119.247Z" fill="#FFE779"/>
<path d="M175.055 108.939C175.471 111.469 175.661 116.982 176.343 122.193C177.025 127.404 177.139 135.069 177.177 142.395C177.195 146.782 177.639 151.157 178.503 155.46C183.618 153.76 187.255 149.758 187.255 149.758C187.255 149.758 187.748 149.154 186.422 144.283C185.096 139.411 184.755 122.193 184.755 122.193C184.957 119.328 184.804 116.449 184.3 113.621C183.466 109.505 180.663 106.598 178.503 105.918C177.328 105.541 176.099 105.362 174.865 105.389C174.865 105.389 174.941 107.315 175.055 108.939Z" fill="#6DAFA7"/>
<path d="M165.089 97.8373C165.089 97.8373 164.861 102.142 164.861 104.257C164.861 107.957 169.939 111.771 171.833 111.771C174.902 111.771 175.433 108.184 175.281 106.598C175.13 105.012 175.092 100.405 175.13 100.292C175.168 100.178 166.983 95.7982 165.089 97.8373Z" fill="#B28D93"/>
<path d="M166.908 100.103C167.477 104.785 171.228 107.24 175.282 107.089C175.29 106.936 175.277 106.784 175.244 106.635C175.168 105.993 175.13 104.861 175.13 103.766C172.213 105.276 168.613 102.822 166.908 100.103Z" fill="#896068"/>
<path d="M169.598 110.94C169.332 115.434 171 126.611 171 139.298C171 151.986 169.143 157.197 169.143 157.197C153.494 159.047 145.537 152.477 145.537 152.477C145.537 152.477 146.143 151.155 147.47 147.492C148.796 143.829 148.796 139.336 148.796 139.336C148.796 139.336 150.614 122.759 149.97 119.059C149.326 115.358 146.939 110.449 146.939 110.449C146.939 110.449 148.834 107.693 153.911 106.296C157.852 105.201 162.133 105.087 163.838 105.087L163.8 105.276C165.543 109.165 169.598 110.94 169.598 110.94Z" fill="#6DAFA7"/>
<path d="M156.07 144.849C158.62 145.569 161.266 145.887 163.914 145.793C164.406 145.755 164.785 146.057 164.747 146.435V146.473C164.702 146.64 164.604 146.789 164.467 146.898C164.331 147.007 164.164 147.069 163.99 147.077C162.284 147.19 157.889 146.926 155.616 146.02C155.451 145.97 155.31 145.862 155.219 145.716C155.129 145.57 155.095 145.396 155.123 145.227C155.199 144.887 155.654 144.736 156.07 144.849Z" fill="#EAF9F3"/>
<path d="M180.891 144.736C181.648 144.547 183.354 144.169 185.21 143.527C185.475 143.452 185.779 143.678 185.854 144.056V144.094C185.898 144.21 185.9 144.339 185.858 144.456C185.817 144.573 185.735 144.672 185.627 144.736C184.755 145.076 182.558 145.868 181.156 145.944C181.023 145.928 180.897 145.873 180.796 145.785C180.695 145.698 180.622 145.582 180.588 145.453C180.512 145.113 180.625 144.811 180.891 144.736Z" fill="#EAF9F3"/>
<path d="M181.27 126.044H181.08C178.2 127.592 176.533 127.517 176.344 126.082C176.647 125.893 176.912 125.704 177.177 125.516C177.809 125.11 178.519 124.84 179.261 124.723C179.813 124.63 180.37 124.567 180.929 124.534C180.929 124.534 181.762 124.345 181.914 124.647C182.065 124.874 182.027 125.44 181.27 126.044Z" fill="#B28D93"/>
<path d="M200.365 139.298L178.844 139.26C178.684 139.261 178.527 139.229 178.381 139.165C178.235 139.101 178.104 139.007 177.997 138.89C177.89 138.772 177.808 138.633 177.758 138.483C177.709 138.332 177.691 138.172 177.707 138.014L179.336 121.4C179.371 121.041 179.545 120.71 179.821 120.477C180.097 120.244 180.453 120.128 180.814 120.154L202.412 121.589C202.652 121.612 202.873 121.727 203.029 121.911C203.184 122.094 203.262 122.331 203.245 122.57L201.502 138.279C201.474 138.559 201.342 138.819 201.132 139.007C200.921 139.196 200.648 139.3 200.365 139.298Z" fill="#22272E"/>
<path d="M193.015 123.439C193.026 123.383 193.025 123.326 193.011 123.271C192.997 123.216 192.971 123.165 192.935 123.121C192.898 123.078 192.852 123.043 192.801 123.02C192.749 122.996 192.693 122.985 192.636 122.986C192.509 122.992 192.389 123.039 192.292 123.121C192.196 123.203 192.13 123.315 192.105 123.439C192.094 123.494 192.095 123.552 192.109 123.607C192.123 123.661 192.149 123.713 192.185 123.756C192.222 123.8 192.268 123.834 192.319 123.858C192.371 123.881 192.427 123.893 192.484 123.892C192.609 123.88 192.727 123.83 192.822 123.749C192.917 123.668 192.984 123.56 193.015 123.439Z" fill="#63737A"/>
<path d="M173.577 135.182C173.538 135.346 173.459 135.497 173.346 135.622C173.234 135.747 173.092 135.843 172.933 135.9C167.355 138.273 161.588 140.18 155.693 141.602C154.102 141.979 152.586 142.319 151.222 142.546C143.985 143.754 140.006 142.772 138.642 138.543C137.013 133.521 143.303 115.471 146.183 111.355C146.414 111.025 146.667 110.709 146.94 110.411C150.919 107.315 155.049 110.336 155.958 115.396C156.413 118.077 155.276 121.022 154.329 124.383C153.647 126.799 151.904 130.689 151.904 130.689L171.759 128.65C171.936 128.622 172.118 128.643 172.284 128.709C172.451 128.776 172.597 128.885 172.706 129.027C174.525 131.029 173.919 134.012 173.577 135.182Z" fill="#FFE779"/>
<path d="M151.903 130.651C151.903 130.651 148.038 131.104 146.561 132.086" stroke="#F8AB5D" stroke-width="1.4168" stroke-linecap="round" stroke-linejoin="round"/>
<path d="M169.067 128.876C169.067 128.876 168.006 130.085 168.423 132.615C168.878 135.371 170.09 136.126 170.924 136.693" stroke="#F8AB5D" stroke-width="1.4168" stroke-linecap="round" stroke-linejoin="round"/>
<path d="M138.642 138.883C138.642 138.883 138.225 136.617 141.522 136.579C144.818 136.542 148.531 141.073 146.22 143.036" stroke="#F8AB5D" stroke-width="1.4168" stroke-linecap="round" stroke-linejoin="round"/>
<path d="M188.694 131.708C188.467 132.426 186.724 131.746 185.398 131.369C183.693 130.878 182.556 130.5 182.442 130.462C183.545 131.054 184.597 131.736 185.587 132.501C186.951 133.521 187.975 134.616 187.52 135.145C187.065 135.673 184.337 134.087 184.337 134.087C184.337 134.087 185.322 134.767 185.55 135.56C185.777 136.353 184.451 136.089 181.95 134.578C181.95 134.578 181.003 134.616 179.222 135.409C177.441 136.202 174.789 135.824 173.955 135.56C173.623 135.462 173.278 135.411 172.932 135.409C172.741 135.407 172.553 135.362 172.383 135.277C172.212 135.192 172.063 135.069 171.947 134.918C171.241 134.066 170.794 133.031 170.658 131.935C170.507 130.538 170.848 129.745 171.113 129.367C171.235 129.171 171.423 129.023 171.644 128.952C172.1 128.798 172.543 128.608 172.97 128.385C173.311 128.197 174.561 127.29 175.812 126.46C175.995 126.343 176.172 126.217 176.342 126.082C177.92 126.163 179.502 126.15 181.078 126.044H181.268C182.897 125.931 187.255 126.309 187.709 126.8C188.164 127.29 187.52 127.932 185.474 127.895C184.371 127.892 183.269 127.968 182.177 128.121C183.307 128.403 184.41 128.782 185.474 129.254C187.065 129.971 188.96 130.991 188.694 131.708Z" fill="#B28D93"/>
<path d="M182.48 130.462C182.48 130.462 181.874 130.236 181.42 130.122C181.147 130.054 180.867 130.016 180.586 130.009" stroke="#896068" stroke-width="1.4168" stroke-linecap="round" stroke-linejoin="round"/>
<path d="M184.337 134.087C184.337 134.087 183.087 132.803 181.647 132.501C181.003 132.388 180.586 132.35 180.586 132.35" stroke="#896068" stroke-width="1.4168" stroke-linecap="round" stroke-linejoin="round"/>
<path d="M182.215 128.121C181.668 128.1 181.12 128.151 180.586 128.272" stroke="#896068" stroke-width="1.4168" stroke-linecap="round" stroke-linejoin="round"/>
<path d="M178.919 126.12C178.614 126.124 178.31 126.099 178.01 126.044" stroke="#896068" stroke-width="1.4168" stroke-linecap="round" stroke-linejoin="round"/>
<path d="M174.941 107.051C174.903 106.548 174.903 106.043 174.941 105.54C174.989 105.19 175.002 104.836 174.978 104.483V103.615C174.978 103.615 175.206 104.105 175.66 104.898C176.115 105.691 175.433 109.165 175.092 109.581L174.941 107.051Z" fill="#22272E"/>
<path d="M179.07 90.2474C178.924 92.5485 178.924 94.8565 179.07 97.1576C179.17 98.8849 178.692 100.596 177.712 102.024C176.731 103.452 175.304 104.516 173.652 105.049C171.113 105.842 166.339 103.879 165.202 98.2526C164.066 92.6263 161.603 86.2826 168.196 83.9792C174.789 81.6758 179.146 84.8854 179.07 90.2474Z" fill="#B28D93"/>
<path d="M164.825 94.2122C164.825 94.2122 165.62 93.7213 165.886 92.0599C165.901 91.8746 165.961 91.6957 166.06 91.5381C166.158 91.3805 166.294 91.2486 166.454 91.1536C166.833 90.9891 167.166 90.7343 167.424 90.4118C167.682 90.0892 167.856 89.7086 167.932 89.3034C168.008 88.5859 168.311 88.0573 169.069 88.4726C175.017 91.9088 178.958 88.7747 178.958 88.7747L178.996 90.9271C181.307 90.2851 182.709 87.2643 182.254 85.0364C181.686 82.2422 180.625 82.7708 179.299 80.6562C177.973 78.5417 175.548 77.069 172.441 78.1641C169.334 79.2591 168.197 79.75 165.772 79.7122C163.347 79.6745 161.036 80.694 160.846 82.9596C160.657 85.2253 158.573 85.9049 158.194 88.0195C157.815 90.1341 158.649 91.1914 159.444 92.0221C160.24 92.8529 158.724 95.194 160.733 97.1575C162.741 99.1211 164.067 99.7252 164.901 101.009C165.014 101.009 165.317 97.5351 164.825 94.2122Z" fill="#22272E"/>
<path d="M165.506 94.8541C165.506 94.8541 164.066 92.4375 162.134 93.5325C160.201 94.6276 162.247 98.4036 165.241 98.2148" fill="#B28D93"/>
<path d="M175.85 93.0039C175.985 93.3827 176.177 93.7392 176.418 94.0612C176.522 94.1954 176.636 94.3216 176.759 94.4388C176.96 94.5775 177.128 94.7578 177.252 94.9674C177.37 95.1873 177.434 95.4314 177.441 95.6804C177.447 95.9295 177.396 96.1766 177.29 96.4023C177.208 96.6174 177.079 96.8111 176.911 96.9687C176.761 97.1376 176.563 97.2563 176.343 97.3086C176.578 97.0017 176.722 96.6355 176.759 96.2513C176.804 95.9321 176.765 95.6069 176.646 95.3073C176.57 95.1562 176.494 95.1185 176.305 94.9297C176.144 94.7522 176.015 94.5476 175.926 94.3255C175.769 93.9023 175.743 93.4421 175.85 93.0039Z" fill="#22272E"/>
<path d="M173.804 100.443C173.303 100.485 172.8 100.387 172.352 100.16C171.904 99.9331 171.528 99.5865 171.266 99.1588" stroke="#22272E" stroke-width="1.4168" stroke-linecap="round" stroke-linejoin="round"/>
<path d="M171.644 94.5899C171.574 94.5914 171.504 94.5788 171.439 94.5528C171.374 94.5267 171.315 94.4879 171.265 94.4385C171.216 94.3891 171.177 94.3302 171.151 94.2653C171.125 94.2005 171.112 94.1311 171.113 94.0612V93.5326C171.112 93.4627 171.125 93.3933 171.151 93.3284C171.177 93.2636 171.216 93.2047 171.265 93.1553C171.315 93.1059 171.374 93.067 171.439 93.041C171.504 93.015 171.574 93.0024 171.644 93.0039C171.714 93.0024 171.784 93.015 171.849 93.041C171.914 93.067 171.973 93.1059 172.022 93.1553C172.072 93.2047 172.111 93.2636 172.137 93.3284C172.163 93.3933 172.176 93.4627 172.174 93.5326V94.0612C172.171 94.2005 172.115 94.3333 172.016 94.4318C171.917 94.5303 171.784 94.587 171.644 94.5899Z" fill="#22272E"/>
<path d="M177.517 94.5899C177.447 94.5914 177.377 94.5788 177.312 94.5528C177.247 94.5267 177.188 94.4879 177.138 94.4385C177.089 94.3891 177.05 94.3302 177.024 94.2653C176.998 94.2005 176.985 94.1311 176.986 94.0612V93.5326C176.985 93.4627 176.998 93.3933 177.024 93.3284C177.05 93.2636 177.089 93.2047 177.138 93.1553C177.188 93.1059 177.247 93.067 177.312 93.041C177.377 93.015 177.447 93.0024 177.517 93.0039C177.587 93.0024 177.657 93.015 177.722 93.041C177.787 93.067 177.846 93.1059 177.895 93.1553C177.945 93.2047 177.984 93.2636 178.01 93.3284C178.036 93.3933 178.049 93.4627 178.047 93.5326V94.0612C178.044 94.2005 177.988 94.3333 177.889 94.4318C177.79 94.5303 177.657 94.587 177.517 94.5899Z" fill="#22272E"/>
<path d="M172.402 91.8333C172.023 91.9844 171.758 91.5312 171.189 91.6823C170.318 91.9466 169.901 92.2487 169.75 91.8711C169.636 91.6068 170.166 90.9271 171 90.7005C172.213 90.4362 173.084 91.569 172.402 91.8333Z" fill="#22272E"/>
<path d="M176.798 91.8334C177.101 91.9467 177.328 91.5313 177.745 91.6446C178.314 91.8334 178.617 92.0599 178.693 91.7579C178.768 91.5313 178.465 90.9271 177.897 90.7383C176.987 90.4362 176.192 91.6068 176.798 91.8334Z" fill="#22272E"/>
<path d="M162.438 95.1185C162.459 95.038 162.497 94.9629 162.549 94.8979C162.601 94.8329 162.667 94.7794 162.741 94.7409C162.819 94.6775 162.911 94.6312 163.009 94.6052C163.107 94.5792 163.209 94.574 163.309 94.5898C163.522 94.6332 163.711 94.7544 163.839 94.9297C163.942 95.0722 164.031 95.2239 164.105 95.3828C164.206 95.6521 164.282 95.9302 164.332 96.2135C164.37 96.3268 164.37 96.4023 164.446 96.4779C164.555 96.5704 164.685 96.6352 164.825 96.6667C164.679 96.7613 164.505 96.8014 164.332 96.7799C164.134 96.7259 163.96 96.606 163.839 96.4401C163.682 96.1919 163.554 95.9257 163.461 95.6471C163.417 95.5308 163.367 95.4173 163.309 95.3073C163.281 95.2295 163.227 95.1632 163.157 95.1185C163.044 94.9674 162.741 95.0052 162.438 95.1185Z" fill="#22272E"/>
<path d="M165.847 118.417C165.998 119.852 165.051 121.4 163.687 121.513C163.023 121.538 162.375 121.31 161.873 120.875C161.372 120.441 161.056 119.833 160.988 119.174C160.921 118.516 161.107 117.856 161.51 117.33C161.913 116.803 162.501 116.449 163.156 116.34C164.558 116.189 165.733 116.982 165.847 118.417Z" fill="#FFE779"/>
<path d="M169.599 110.94C169.599 110.94 165.545 109.165 163.764 105.238L164.484 102.142C165.318 103.73 166.611 105.033 168.197 105.88C168.626 106.1 168.988 106.428 169.248 106.833C169.508 107.238 169.655 107.704 169.675 108.184C169.704 109.103 169.679 110.024 169.599 110.94Z" fill="#22272E"/>
<path d="M119.924 133.03C119.925 133.303 119.872 133.573 119.767 133.826C119.663 134.078 119.509 134.308 119.316 134.501C119.122 134.694 118.892 134.847 118.639 134.951C118.385 135.055 118.114 135.108 117.84 135.107C117.289 135.102 116.761 134.881 116.372 134.493C115.982 134.105 115.761 133.579 115.756 133.03C115.756 132.479 115.975 131.951 116.366 131.561C116.757 131.172 117.287 130.953 117.84 130.953C118.393 130.953 118.923 131.172 119.313 131.561C119.704 131.951 119.924 132.479 119.924 133.03Z" fill="#22272E"/>
<path d="M119.924 140.318H115.756C115.532 140.319 115.31 140.275 115.102 140.19C114.895 140.105 114.706 139.98 114.548 139.822C114.389 139.664 114.264 139.477 114.179 139.27C114.093 139.063 114.05 138.842 114.051 138.618C114.051 137.617 114.45 136.657 115.161 135.948C115.871 135.24 116.835 134.842 117.84 134.842C118.845 134.842 119.809 135.24 120.519 135.948C121.23 136.657 121.629 137.617 121.629 138.618C121.63 138.842 121.587 139.063 121.501 139.27C121.416 139.477 121.29 139.664 121.132 139.822C120.973 139.98 120.785 140.105 120.578 140.19C120.37 140.275 120.148 140.319 119.924 140.318Z" fill="#22272E"/>
<path d="M107.23 135.635C107.228 137.861 107.93 140.031 109.237 141.835C110.544 143.64 112.388 144.988 114.509 145.687C116.629 146.385 118.917 146.4 121.045 145.727C123.174 145.055 125.036 143.73 126.365 141.941" stroke="#6DAFA7" stroke-width="1.4168" stroke-linecap="round" stroke-linejoin="round"/>
<path d="M127.502 143.187L127.577 139.789L124.584 141.413L127.502 143.187Z" fill="#6DAFA7"/>
<path d="M128.411 135.635C128.409 133.378 127.682 131.181 126.337 129.365C124.992 127.549 123.099 126.21 120.936 125.543C118.772 124.877 116.451 124.917 114.312 125.66C112.173 126.402 110.329 127.807 109.049 129.669" stroke="#6DAFA7" stroke-width="1.4168" stroke-linecap="round" stroke-linejoin="round"/>
<path d="M107.875 128.461L107.951 131.822L110.868 130.085L107.875 128.461Z" fill="#6DAFA7"/>
</g>
<defs>
<clipPath id="clip0_249_2690">
<rect width="388" height="290" fill="white"/>
</clipPath>
</defs>
</svg>
